<svg id="Layer_1" data-name="Layer 1" xmlns="http://www.w3.org/2000/svg" viewBox="0 0 817.14 264.15"><defs><style>.cls-1{fill:#fff;}</style></defs><path class="cls-1" d="M785.75,472.86c2.34,10.2,8.51,16.25,17.37,16.54-4-3.28-7.47-6-10.81-9-4.23-3.77-3.92-6.56.18-10.51,9.51-9.18,22-11.51,34-14.41,40.59-9.76,82-12.28,123.57-13.11,49.57-1,99,.85,147.84,10.25,13.8,2.65,27.11,8,40.45,12.65,3.32,1.16,6.33,4.12,8.62,6.94,1,1.19.47,4.79-.68,6.27-7.1,9.09-17.94,11.69-28.22,14.38-35.56,9.29-72,12.52-108.59,14.13-44.23,2-88.4,1.18-132.43-3.63-13-1.42-25.79-4-38.7-6a33.62,33.62,0,0,0-5.12,0l-.22,2c9.92,1.75,19.8,3.83,29.78,5.18,47,6.37,94.18,7.32,141.42,5.59,38.28-1.4,76.41-5,113.72-14.44,10.27-2.6,20.57-5.58,28.76-12.68,2.87-2.49,4.36-6.58,6.91-10.61,5,3.5,10.55,7.37,16.07,11.36q34.24,24.76,68.43,49.61c22,16,43.87,32.29,65.91,48.3s44.16,31.81,66.25,47.71c2.13,1.53,4.24,3.1,6.36,4.64,4,2.92,4.17,7.78-.24,10.28-6.53,3.7-13.15,7.49-20.17,10-30.16,10.87-61.25,18.29-92.69,24.4a1464.5,1464.5,0,0,1-170,22.5c-64.93,4.88-130,7.06-195.07,2.94-40.1-2.54-80.22-5.45-120.17-9.74-56.9-6.1-113.31-15.55-168.31-31.86-13.52-4-26.46-10-39.67-15a9,9,0,0,1-1.58-.6c-8-4.88-8.14-9.7-.64-15.15,18.38-13.35,36.63-26.87,55-40.26,19.86-14.49,39.83-28.82,59.65-43.37,17.41-12.78,34.65-25.82,52-38.65q24.47-18.07,49.07-36A7.65,7.65,0,0,1,785.75,472.86ZM964.84,504.3c49.7-.58,88.3-2.65,126.17-11.36,9.65-2.22,19-6.17,28.16-9.95,4.16-1.7,7.88-5.67,6.59-10.36-.85-3.08-4.45-5.93-7.49-7.79-12.35-7.51-26.46-9.91-40.35-12.38-35.92-6.4-72.22-8.47-108.66-8.37-41.2.11-82.19,2.43-122.54,11.46-11.05,2.48-22.16,5.16-31.49,12-5.9,4.34-6.31,9.43-.09,13.11,7.83,4.63,16.39,8.8,25.18,10.94C884.82,502.47,930.27,504.19,964.84,504.3Zm-144.79,5.19c-7.44-2.19-15.08-2.91-20.91-6.54-8.51-5.31-13.86-3.43-20.87,2.69-12,10.44-25.11,19.57-37.71,29.31q-19.8,15.3-39.51,30.72-18.62,14.54-37.2,29.12c-10.77,8.42-21.6,16.77-32.37,25.21-5.77,4.53-11.45,9.18-18.26,14.65,21.28,6.55,41.1,12.7,61,18.66a5.79,5.79,0,0,0,4.63-1c13.39-11.6,27-23,39.82-35.18,10.73-10.16,20.57-21.25,30.78-32q16.25-17,32.44-34.12c6.06-6.35,12.28-12.55,18.21-19C806.78,524.7,813.24,517.19,820.05,509.49Z" transform="translate(-562.5 -442.11)"/></svg>