<svg id="Layer_1" data-name="Layer 1" xmlns="http://www.w3.org/2000/svg" viewBox="0 0 423.54 685.37"><defs><style>.cls-1{fill:#fff;}</style></defs><path class="cls-1" d="M797.76,504.91c-9.55-4.5-19-8.68-28.16-13.32-18.23-9.22-24.47-12.25-20-40.75,3.84-24.23,12.91-46.75,24.72-68.15,2.34-4.24,2.77-7.6.75-12.38-7.55-17.8.24-47.11,15.64-58.67,4.5-3.37,10.24-5.55,15.74-7.05,13.8-3.76,27.76-6.93,41.72-10.06,3.15-.71,3.76-2.1,3.86-5,.47-14.13-.15-28.47,2.16-42.32,4-24.1,16.93-41.8,42-47.92,34.65-8.44,62.74,11.36,66.74,47a109.71,109.71,0,0,1,.65,19.42c-.43,6.42-2,12.76-3.21,19.55.81.27,2,.77,3.24,1.08,17.4,4.4,24.53,11.57,26,29.52,1.25,15.89.87,31.92.73,47.89,0,2.44-2.27,5.2-4.15,7.19a20.7,20.7,0,0,1-7,4.72c-14.78,6.1-15.31,18.83-15,31.86.34,12.81,1,25.61,1.58,38.42,0,1-.07,2,0,3,.56,12.88-6.58,20.33-18.29,24.86,6.14,9.29,12,18.09,17.82,27,20.84,32.11,41.58,64.3,58.36,98.81,3.05,6.27,5.16,13,8.11,19.31,1.2,2.56,3,5.42,5.39,6.75,14.87,8.44,25.48,20.79,33.26,35.68,8.4,16.07,16.36,32.37,24.69,48.47,1.24,2.39,3.45,4.29,5.27,6.36,2.86,3.24,5.62,6.57,8.67,9.61,4.9,4.88,9.56,10.16,15.11,14.17,9.57,6.91,19.9,12.75,29.61,19.48,9.34,6.45,16.13,14.9,17.75,26.63,0,.17.1.33.11.49,1,15.52-4.36,25.43-22.69,19.28-15.88-5.32-28.47-15.57-40.36-26.94-11.18-10.68-22-21.81-35.6-29.65-5.42-3.12-8-8.55-9.4-14.72-.77-3.35-2.29-7.13-4.7-9.41-11.23-10.61-22.7-21-34.48-31-6.46-5.49-11.92-11.49-15.71-19.11a12.27,12.27,0,0,0-4.63-4.72c-15-8.76-28.47-19.14-37.69-34.14-7.21-11.75-15.71-21.86-27.24-30a204.57,204.57,0,0,1-41.82-39.9,15.37,15.37,0,0,0-7-4.4c-5.22-1.74-6.56-.63-7.53,4.8-2.72,15.09-8.65,29-16.33,42.13-2.77,4.74-5.53,9.51-8.68,14-9,12.86-17.72,25.78-19.85,41.92a27.42,27.42,0,0,1-2.78,8c-1.2,2.5-.48,4,1.12,6.13C850.39,697.2,859,717.77,861.05,741c1.42,15.73,6.93,30.44,12.53,45,5.42,14.12,11.67,28,16.52,42.25,2.36,6.93,2.51,14.64,3.37,22,.56,4.79-2.36,7.75-6.34,9.76a56.18,56.18,0,0,1-7.25,3.31c-17.83,5.87-35.57,12.05-53.6,17.22a55.12,55.12,0,0,1-21.11,1.71c-10.74-1.27-14.27-11.49-6.88-19.51,4.77-5.19,10.9-9.15,16.54-13.51,4.73-3.66,10-6.64,14.36-10.72,10.59-10,13.33-21.4,7-34.45a435.7,435.7,0,0,0-24.52-44.54c-14.6-22.83-24.31-47-30.71-73.56-11.3-46.85-8.07-92.82,2.24-138.84,3-13.21,8.75-25.78,13.25-38.65C796.85,507.34,797.31,506.14,797.76,504.91ZM957.4,294.75c-.74,2.34-1.36,3.87-1.7,5.46-1,4.62-2.65,8.53-8,9.67-2.81.6-3.54,2.68-3.87,5.51-.55,4.85-1.21,9.86-3,14.36-1.69,4.34-5,8.05-7.31,12.17-4.11,7.21-7.57,14.84-12.16,21.72-9.19,13.76-13.35,14.53-27.63,6.21-15.1-8.79-24.85-22.42-32.71-37.49-4.67-8.94-8.49-18.33-12.81-27.79-12.74,3-25.58,6.49-38.59,9.1C798.06,316,791,323,786.57,333.48c-8.79,20.55-5.18,38,10.75,50.82,9.44,7.58,20.48,11.57,32.21,13.92,5.17,1,6.65,3.36,4.47,8.11a214.9,214.9,0,0,1-10,19.43c-4.29,7.31-9.23,14.23-13.65,21.46-2.81,4.61-1.46,10.92,1.92,15.08,9.91,12.18,23.8,17.83,37.7,23.44,1.74.7,4,.1,7.05.1l-3.71-4.66c-11.38-14.38-18.42-30.41-18.08-49.07.21-11.45,4.51-17.51,15.71-20,7.18-1.6,14.8-1.16,22.21-1.76,1.87-.15,4.57-.19,5.38-1.34,4.83-6.82,11.55-7.46,19-6.88a50.55,50.55,0,0,0,11.47-.05c7.33-1.1,12.63,1.43,16,7.83.84,1.59,1.36,4.05.73,5.59-2.19,5.37-5,10.48-7.43,15.79-.49,1.11-.6,3,0,3.9,2.5,3.47,5.37,6.68,8.3,10.23,2.33-7.39,3.7-14.89,7-21.42,4.81-9.52,5.92-19.66,7.33-29.83a10.35,10.35,0,0,1,5-8.05q15.93-10.32,31.58-21.05c1.47-1,3.37-2.91,3.34-4.36-.36-16.45-.89-32.9-1.76-49.32-.35-6.64-4.49-10.93-10.66-13.14C964.93,297,961.43,296,957.4,294.75ZM852.64,515.41c-.24-4.52-1.19-8.46-.46-12.06,1.1-5.47-1-7.76-5.85-9.22-3.47-1.05-6.69-2.93-10.09-4.27a78.88,78.88,0,0,1-31.46-22.23,92.26,92.26,0,0,0-10.29-10.16c-3.55-3-3.28-5.48-.37-8.76,5.52-6.22,11-12.48,16-19.13,5.13-6.86,9.62-14.21,14.82-22-16.63-3.92-29.69-12.07-41.77-23.26-4.86,10.48-10,20.05-13.8,30.11-6.15,16.16-11.58,32.6-11.93,50.22-.14,6.88,2.48,11.62,8.67,14.9C793.69,494.16,822.65,505.3,852.64,515.41Zm16,288.53c-5.54-18.2-11.27-35.54-16-53.14-3-11-3.7-22.63-6.81-33.58a90.39,90.39,0,0,0-16.78-32c-10.17,10.78-22.79,10.8-35.93,9.28,3.18,14.72,7.86,28.29,15.38,40.85,14,23.49,29.92,46,39.92,72.5ZM866,419c-1.82.09-3.67,0-5.47.28-15,2-17.49,4.84-16,19.62,1.5,15.43,8.68,28.41,18.68,40,2.39,2.78,4.88,3.92,8.61,3.48,15.35-1.81,30.73-3.43,46.1-5,7.6-.78,8.31-1.37,7.86-9.08a25.48,25.48,0,0,0-1.39-6.3C916.69,438.77,890.31,419.35,866,419ZM784.17,646.65c.21,2.84.38,8,1,13.11a93.3,93.3,0,0,0,2.91,15.16c.91,3,2.67,6.39,5.1,8.17,7.87,5.77,25.22,1.88,29.43-6.86,3.5-7.27,5.44-15.28,8.3-22.88,1.88-5-.19-8.24-4.07-11-10.53-7.52-22.12-10.47-34.92-8C783.93,635.85,783.74,636.18,784.17,646.65ZM947.41,288.76c8.05-19.4,9.5-39,1.07-58.45-4.38-10.1-11.63-17.52-22.73-20.38-7.24,14.14-12.17,49.2-8.71,62.81,7-.86,14-1.66,21.09-2.64,4-.56,6.36.81,7,5C945.75,279.68,946.63,284.21,947.41,288.76Zm72,386.85c4.51,4.25,8,7.66,11.6,10.91,11.12,10,22.5,19.63,33.4,29.83,6.28,5.88,13.29,6.8,19.91,1.07a5.22,5.22,0,0,0,1-4.74c-2.2-5.19-4.8-10.21-7.44-15.2-7.28-13.79-14.57-27.58-22.06-41.26-1.59-2.89-4.06-5.29-6.72-8.69C1048.51,667.44,1043.66,672.08,1019.39,675.61Zm-155-374.69c18.2,10.58,53.68,11.8,72.71,2.64a4.13,4.13,0,0,0,2-3.2c-.84-6.56-2-13.07-3.09-19.77-22.77,2.77-44.93,2.83-67.24-2.7C867.26,285.75,865.84,293.22,864.37,300.92Zm2.19,215.68c19.33-1.92,37.24-4.57,54.27-11.21a34.93,34.93,0,0,0,11.38-6.83c1.79-1.72,2.66-5.86,2-8.36-.95-3.45-4.31-5.09-8.38-4.65-18.51,2-37,3.86-55.54,5.87a9.22,9.22,0,0,0-4,1.67c-6.84,4.59-5.38,11.39-4.7,18C862,514.9,863.08,517.72,866.56,516.6Zm-4.41-251.12,22.88,6c-.94-21.3,1.74-41.37,9-60.94C875.21,214.82,860.92,239.85,862.15,265.48Zm167.18,365.69c-10.56,11.5-23.15,16-37,19,5.73,4.34,11.32,9,17.73,11.53a42.27,42.27,0,0,0,18.29,2.75c8.92-.69,13-7.65,10-16.14C1036.18,642.57,1032.6,637.33,1029.33,631.17Zm-95.2-164.45c7.38-.46,14-3.15,18.56-7.48,1.43-1.38,2.87-3.59,2.9-5.45.23-14.37.13-28.74.13-43.11l-2-.69c-2,1.5-5,2.61-5.71,4.56q-6.86,19.67-12.72,39.68C934.16,458,934.5,462.22,934.13,466.72Zm-18.67-259c-9.26-.86-9.52-1-12.22,6.94a188,188,0,0,0-6,21c-2.58,11.87-3,23.92-2.16,36.37h11.19C905.37,250,907.75,228.67,915.46,207.74ZM905,339.48c.57-7,1.08-13.2,1.6-19.58L885,318.54c0,5.93-.18,11.74.15,17.52.07,1.19,2,3.19,3.12,3.26C893.67,339.67,899.1,339.48,905,339.48Zm16.39,6.36-1-1.06A60.77,60.77,0,0,1,884.32,349c6.17,7.4,12.53,12.31,20.3,15.07a6,6,0,0,0,5.3-1.56C914,357.16,917.61,351.43,921.39,345.84Zm-6-10.46c12.85-4.2,19-11.07,18.15-19.79-16.68,1.56-16.69,1.56-18.14,17.44C915.37,333.67,915.42,334.31,915.42,335.38ZM866.84,313.3c1.13,7.05,2.64,13.24,8.32,19V323.4C875.16,315.78,875.16,315.78,866.84,313.3Zm29.47,104.06,10,6.54,3.34-6.54Zm53.06-17.87c6.06.23,5.85-3.26,5.65-6.74l-1.31-.76Z" transform="translate(-748.23 -197.32)"/></svg>