<svg id="Layer_1" data-name="Layer 1" xmlns="http://www.w3.org/2000/svg" viewBox="0 0 357.12 676.86"><defs><style>.cls-1{fill:#fff;}</style></defs><path class="cls-1" d="M952.21,605.19c-9.13-9.26-15.14-19.84-17.27-32.38-3.09-18.21,2.12-34,14.82-47.15,3.47-3.59,6-7.14,6.9-12.2,4.27-24.51,5-49,.14-73.49-.25-1.27-.73-2.49-1.16-3.9-5.38.37-10.49,1.05-15.6,1C926.49,437,915.77,427,915.2,413.47c-.48-11.31-.53-22.68.08-34,.87-16.27,12.88-28.85,29.76-31.53,36.5-5.78,73-11.32,109.56-16.92,7.07-1.09,14.14-2.76,21.24-2.92,22.31-.47,36.92,14.16,37.15,36.57q.12,12.26,0,24.5c-.16,13.84-7.88,23.27-21.39,26.14-2.41.52-4.18.92-4.49,4.11-5.06,52.44-15.69,103.68-34.38,153a149.72,149.72,0,0,1-15.87,30.42c-23,34.12-46.49,67.89-70.14,101.56A53.24,53.24,0,0,1,953,717.93c-38.57,25.61-77.53,50.65-116.08,76.29-16.56,11-36.21,8.28-47.49-4.79a34.31,34.31,0,0,1,7.05-51.17c22-14.74,44.3-29,66.46-43.48,15.32-10,30.67-20,45.91-30.09a22,22,0,0,0,5.62-5.47C927,641.4,939.45,623.49,952.21,605.19ZM1034.53,435l-1.92-.23a31.28,31.28,0,0,0-2.42,3.47c-3.36,6.5-6.39,13.18-10,19.54a235.12,235.12,0,0,1-34,45.48c-1,1.07-1.07,3-1.57,4.57,1.63-.58,3.73-.71,4.82-1.83a226.71,226.71,0,0,0,35.36-46.93c3.5-6.24,6.71-12.65,9.76-19.11C1035.18,438.6,1034.57,436.66,1034.53,435Zm-60.86,45.92,1.57.44a11.77,11.77,0,0,0,2.47-2.1c5.71-8.52,11.39-17.06,16.91-25.71.6-1,.12-2.6.15-3.93-1.26.7-3,1.07-3.7,2.14-3.22,5-6,10.35-9.24,15.34-2.26,3.46-5.2,6.47-7.57,9.87C973.58,477.94,973.84,479.58,973.67,480.91Z" transform="translate(-780.99 -201.62)"/><path class="cls-1" d="M1045.12,607.57c9.28,10.74,18.42,21.29,27.55,31.85,8.17,9.45,16.16,19.06,24.54,28.32,7.41,8.21,10.6,17.54,10.89,28.62,1.26,47.13,2.94,94.26,4.6,141.38.33,9.4-.92,18.18-6.35,26.17-7.13,10.46-17.38,15.2-29.48,14.51-14.61-.84-26.26-7.94-30.62-22.38-2.68-8.89-2.88-18.67-3.23-28.09-1.44-39-2.47-77.93-3.86-116.9a14.11,14.11,0,0,0-3.1-7.92c-9.48-11.39-19.25-22.55-29-33.73-1.66-1.9-2.83-3.5-1.05-6.08q18.88-27.32,37.64-54.73C1043.83,608.34,1044.19,608.21,1045.12,607.57Z" transform="translate(-780.99 -201.62)"/><path class="cls-1" d="M1048.17,307c0,.5-.05,1-.07,1.49-.59,14.69-.89,15.08-15.23,17.28-24.15,3.71-48.33,7.28-72.47,11.07-4,.62-6.3-.39-8.41-3.95-11.81-19.83-8.75-45.53,7.73-62.64,15.84-16.44,41.12-20.16,61.58-9.06A51.35,51.35,0,0,1,1048.17,307Z" transform="translate(-780.99 -201.62)"/><path class="cls-1" d="M1120.91,355.34c-4.9-20-16.89-31.69-35.14-35.45-.74-7.48-1.37-14.62-2.17-21.73-1.43-12.57-3.12-25.11-4.4-37.69-1.56-15.3,8.49-28.18,22.66-29.44,15.42-1.37,27.41,8.71,29.13,24.37q3.32,30,6.76,60c1.18,10.33-.41,19.9-7.21,28.17Z" transform="translate(-780.99 -201.62)"/><path class="cls-1" d="M842.58,269.67c13.84-19.49,13.74-38.61.41-57.71,18.7-12.3,38.77-14.22,60-2.55-16.1,20.62-16.1,41.42-.2,62.34C882.39,283.28,862.51,281.37,842.58,269.67Zm20.14-32.19-3.9,2.78,3.89,2.72,3.45,5.67,3.61-5.8h6L879,248.7c1-1.75,2.09-3.5,3.21-5.36l4.59-3.05-5-3.36-2.38-5-3.84,5.79h-5.77l-3.64-5.8C865.18,233.59,864.16,235.21,862.72,237.48Z" transform="translate(-780.99 -201.62)"/><path class="cls-1" d="M907.48,212c10,5.7,18.77,12.43,24.13,22.78a11.94,11.94,0,0,1,0,11.83c-5.42,10.51-14.18,17.33-24.19,22.82C891.12,255.35,891.07,228.3,907.48,212Z" transform="translate(-780.99 -201.62)"/><path class="cls-1" d="M838.35,214.15c13.24,16.19,13.23,37.51,0,52.79-9.62-5.14-17-12.53-21.33-22.59-1-2.37-.68-6,.42-8.47C821.69,226.33,829,219.39,838.35,214.15Z" transform="translate(-780.99 -201.62)"/><path class="cls-1" d="M1028.33,255.91c9.24-5.21,17.77-5.1,26.2-.32,8.92,5.06,14.16,13.25,12.65,23.1-2.22,14.38-6.49,28.44-10,42.62-.11.46-.87.76-2.22,1.88C1060.74,294.6,1051.79,272.67,1028.33,255.91Z" transform="translate(-780.99 -201.62)"/></svg>