<svg id="Layer_1" data-name="Layer 1" xmlns="http://www.w3.org/2000/svg" viewBox="0 0 677.05 785.79"><defs><style>.cls-1{fill:#fff;}</style></defs><path class="cls-1" d="M1258.17,622.83v10.31c0,26.49.15,53,0,79.48-.27,37-24.87,66.65-60.22,72.83a96.43,96.43,0,0,1-15.92,1.32c-19.49.15-39,.06-58.49.06h-6v6.36c0,28-.59,56,.14,84,1,37.52-29.28,58-59.33,55.05-48.06-4.7-96.2-8.68-144.32-12.94-27.7-2.45-55.39-5.1-83.12-7.24-28.61-2.2-48.8-23.25-48.85-51.92q-.15-75.48.06-151a13.22,13.22,0,0,0-4.86-10.83,345,345,0,0,1-91.48-128.21,328.45,328.45,0,0,1-23.89-95.56c-5.69-60.07,5.52-116.82,34-169.87C727.18,246.49,773,203.24,832.76,174.94c45.16-21.39,92.92-30.49,142.7-27.76,64.79,3.56,122.91,25.33,173.23,66.63,56.43,46.31,90.87,105.84,104.86,177.3,1.94,9.95,2.48,20.16,4.15,30.17a28.19,28.19,0,0,0,4,10.51c21.91,33.63,43.55,67.45,66.21,100.58,19.36,28.28,8.07,69.87-23.13,84.72-8.79,4.19-18,5.65-27.63,5.73C1271.05,622.87,1264.91,622.83,1258.17,622.83Zm24.67-55.05c-1.48-2.48-2.28-3.9-3.16-5.28q-32.65-51.17-65.32-102.32a85.12,85.12,0,0,1-12.58-35.44c-1.78-13.67-3.69-27.44-7.12-40.77-14.07-54.7-43.78-99.56-88.84-133.4C1052,210.16,991.05,194.71,924.4,204c-63.7,8.89-116.09,38.83-156.22,89.07-46.56,58.29-62.8,125-49.74,198.1,11.88,66.52,44,122.35,94.89,167.05C828.76,671.8,836,688.62,836,708.91q0,72,0,144v5.83l226.83,20v-6c0-32.16-.06-64.32.07-96.49,0-4.79.18-9.79,1.54-14.31,5.64-18.79,20.81-29.81,40.74-29.89,25.83-.11,51.66,0,77.49-.06a29.15,29.15,0,0,0,7.42-.67c8.67-2.28,13.37-9.25,13.39-19.77,0-34.67,0-69.33,0-104,.06-24,15.46-39.26,39.47-39.36,11.17,0,22.33,0,33.5,0C1278.24,568.15,1280,568,1282.84,567.78Z" transform="translate(-660.43 -146.71)"/><path class="cls-1" d="M771.13,452.86c.6-83.41,45.61-151.21,116.34-180.85,69.64-29.18,151.53-13.24,204.83,40.22,12.6,12.63,24.18,26.39,30.41,43.52,11.94,32.8.49,68.67-28.5,89.4a107.79,107.79,0,0,1-17.39,9.7c-26.13,12.14-52.39,24-78.55,36-26.41,12.18-39.77,32.8-39.77,62q0,90.24.06,180.47c0,15.36-6,26.68-20.15,33.19-20.23,9.33-44.13-4.86-45.2-27.09-.59-12.31,0-24.67-.38-37-1.25-36.08-16.92-65.07-43.69-88.73-36.81-32.55-60.67-73.11-72-120.74C773.43,477.52,772.36,461.44,771.13,452.86Z" transform="translate(-660.43 -146.71)"/></svg>