<svg id="Layer_1" data-name="Layer 1" xmlns="http://www.w3.org/2000/svg" viewBox="0 0 513.64 787.35"><defs><style>.cls-1{fill:#fff;}</style></defs><path class="cls-1" d="M1341.12,458.25a42.36,42.36,0,0,0-.63,5.09c-.24,62-.92,124-.38,186,.18,21.09,3.4,42.15,5.32,63.22q4.21,46.28,8.56,92.54c3.2,34.66,6.59,69.31,9.51,104,.92,10.88,2,22.08.45,32.76-2.46,17-19.35,29.26-36.45,28.64-21.53-.77-34.67-13.64-36.61-35.17-4.42-49.27-9.09-98.52-13.63-147.79q-5.48-59.46-10.88-118.94a7.52,7.52,0,0,0-.31-2.46,12.36,12.36,0,0,0-1.88-2.31c-.52.73-1.41,1.42-1.51,2.21-.59,4.79-1,9.6-1.47,14.41q-8,88.1-16,176.19c-2.38,26.21-4.71,52.43-7.14,78.63-2.77,30-35,45.41-59.2,28.15-9.93-7.07-15.76-17-15.21-29.39.71-15.8,2.39-31.55,3.8-47.31,2.79-31,5.69-62,8.53-93.05,3.23-35.17,6.65-70.31,9.58-105.5,1.59-19.07,3.14-38.21,3.3-57.32.43-55.33.15-110.66.15-166a15.52,15.52,0,0,0-.06-3.48,16.54,16.54,0,0,0-1.53-3.25c-.86,1-2.31,1.83-2.49,2.91-2.08,12.65-4,25.33-5.91,38-6,39.17-11.83,78.36-17.94,117.52-2.16,13.79-11.21,22.8-24.29,25.09-11.81,2.07-23.66-3.81-29.8-14.74-3.89-6.93-3.85-14.37-2.71-21.88,7.87-52.18,15.4-104.42,23.84-156.51,6.76-41.81,29.62-71.24,69.9-86.25,5.84-2.17,10.88-2.25,17,.7,34.84,16.84,69.66,16.39,104.14-1.6a9.61,9.61,0,0,1,6.5-.77c35.77,10.62,60.54,33.54,71.81,69,5.56,17.44,7.47,36.11,10.34,54.33,6.44,41,12.38,82,18.68,123,3.41,22.23-18.46,41.69-39.84,34.92a24.8,24.8,0,0,1-17.67-20c-3-16.36-5.4-32.84-7.9-49.29q-8.29-54.59-16.48-109.17A37.71,37.71,0,0,0,1343,458Z" transform="translate(-913.17 -184.83)"/><path class="cls-1" d="M961.47,211.17v66.32h10.71c13.5,0,27,0,40.5,0,7.7,0,9.1,1.44,9.15,9q0,5.76,0,11.5c0,7.62-1.51,9.15-9,9.16q-22.75,0-45.5,0h-5.82v66c1.73.11,3.48.31,5.23.31,15.33,0,30.67,0,46,0,7.47,0,9,1.64,9.06,9.17.08,13-.11,13.15-13,13.15H961.53V462h5.38q23.25,0,46.5,0c6.53,0,8.31,1.79,8.41,8.29.06,4.66.11,9.33,0,14-.15,5.85-2,7.67-8,7.68-15.5,0-31,0-46.5,0h-5.8v66.17h91.41c8.24,0,9.22,1,9.24,9.14,0,4.5,0,9,0,13.5-.08,5.49-1.83,7.16-7.77,7.17-18,0-36,0-54,0H961.55v65.92c1.79.08,3.55.23,5.32.24,15.33,0,30.67,0,46,0,7.5,0,8.91,1.47,9,9.15q0,5.76,0,11.5c0,7.55-1.62,9.17-9,9.17q-22.75,0-45.5,0h-5.78v66.17H967c15.34,0,30.67,0,46,0,7.12,0,8.82,1.77,8.88,8.88,0,4.34.07,8.67,0,13-.13,6.31-1.75,7.91-8.15,7.93-15.5,0-31,0-46.5,0h-5.69v66.17h8.62c14.33,0,28.67,0,43,0,6.88,0,8.67,1.81,8.73,8.52,0,4.83.09,9.67,0,14.5-.12,4.56-2.26,6.9-7.19,6.86-15.83-.16-31.66-.06-47.5-.06h-5.64v66.17h91.21c8.16,0,9.5,1.37,9.51,9.58,0,4.67-.11,9.34,0,14,.11,4.21-2.08,6.07-6,6.38-1.16.09-2.33,0-3.5,0H923.2c-8.7,0-10-1.36-10-10.2V194.5c0-8.29,1.35-9.66,9.49-9.66q65,0,130,0a24.83,24.83,0,0,1,5,.35c3.06.63,4.94,2.09,4.63,5.8-.36,4.31,0,8.66-.1,13-.07,5.47-1.62,7-7.2,7.15-4.5.09-9,0-13.5,0Z" transform="translate(-913.17 -184.83)"/><path class="cls-1" d="M1345.55,265.83a80.3,80.3,0,1,1-80.48-80.26A80.23,80.23,0,0,1,1345.55,265.83Z" transform="translate(-913.17 -184.83)"/></svg>