<svg id="Layer_1" data-name="Layer 1" xmlns="http://www.w3.org/2000/svg" viewBox="0 0 643.79 539.76"><defs><style>.cls-1{fill:#fff;}</style></defs><path class="cls-1" d="M1007.05,696.4c-2.32,23.65-11.18,44.33-27,61.72-23,25.3-52.11,37-86.16,35.59-82.19-3.44-149.37-37.17-200.35-101.78C654.94,643,635.94,586.79,638.46,524.61c3.79-94,46.77-166.54,126.09-216.4,49.78-31.29,105-42.8,163.71-36.43,63.13,6.86,116.7,33.38,160.67,78.94,11.26,11.67,20.77,25,31.08,37.65l-.89,1.63h-11.07c-7,0-14,.13-21-.05-4.67-.12-6.65,1.79-6.59,6.51.15,11.65,0,23.31,0,35.25-9.39,2.15-18.65,4.06-27.78,6.41-25.17,6.47-49.26,15.59-70.49,30.92-17,12.31-31,27.86-43.38,44.67-12.82,17.43-24.68,35.55-37,53.38-1,1.5-2,3-2.73,4-8.12-4.26-15.72-9.12-23.94-12.43-52.09-21-111.93,11.67-123,66.83-11.54,57.42,33.16,111,91.62,109.53,29.1-.71,52.54-12.94,70.69-35.61,1.27-1.59,3.58-3.3,5.42-3.31,28.16-.21,56.32-.15,84.49-.13A19.21,19.21,0,0,1,1007.05,696.4Z" transform="translate(-638.24 -270.09)"/><path class="cls-1" d="M908.36,687.84v-28H1043.3c8.15,0,9.35-1.82,6-9.14-7.46-16.16-14.85-32.35-22.55-48.39-1-2-3.56-4.46-5.55-4.6-16.59-1.21-30.28-8.83-42.53-19.19-8.46-7.16-16.09-15.29-24-22.94L963,541.93c5.88,6.11,11.27,12.2,17.18,17.74,6.62,6.2,14,11.4,23.33,12.67,2,.28,4.88-.29,6.14-1.61.94-1,.49-4.09-.3-5.82q-10.86-23.83-22.17-47.47c-1.47-3.05-1.13-4.82,1.59-6.6,2.92-1.9,5.68-4,9-6.38.86,1.53,1.64,2.72,2.24,4,9,19.11,18.12,38.18,26.94,57.38,1.94,4.23,4.45,5.77,9.15,5.76q109.74-.21,219.47,0a36,36,0,0,1,13.57,2.34c8.93,3.73,12.71,11.37,12.81,20.79.13,12.66,0,25.33,0,38q0,76.23,0,152.47c0,16.09-9.29,25-25.31,24.64-4.33-.1-8.68,0-13-.37-22.7-2-45.48-3.45-68.06-6.43-32.58-4.3-56.64-22.31-74.76-49.17-12.64-18.73-22-39.11-31.24-59.6-2.16-4.82-4.81-6.58-10.14-6.55-48.33.2-96.66.12-145,.12ZM1113,597.51c-15.66,0-31.32,0-47,0-12.83,0-19,9.66-13.59,21.28,5.8,12.34,11.89,24.55,17.73,36.87,1.49,3.14,3.66,4.23,7.09,4.22,30.33-.1,60.65,0,91-.06,5.89,0,6.91-1,6.93-7q.06-19.24,0-38.49c0-11.77-5-16.76-16.66-16.78C1143.33,597.48,1128.16,597.51,1113,597.51Zm62.16,136.06c0-13.16-.07-26.32,0-39.48,0-4.44-1.77-6.31-6.24-6.29-24.66.08-49.31,0-74,.06-6,0-7.59,2.53-4.86,7.85,5.31,10.36,10.48,20.81,16.28,30.9,13.94,24.28,34,41.53,60.42,51.16,6.3,2.3,8.29,1,8.31-5.72C1175.19,759.22,1175.16,746.4,1175.16,733.57Zm28.68,3.43c0,14.33.14,28.65-.08,43-.08,4.71,1.2,7.1,6.31,7.28,9.81.36,19.59,1.34,29.39,1.72s15.47-5.17,15.51-14.77q.13-35.75,0-71.47c0-9.19-5.44-14.7-14.55-14.85-10.16-.17-20.32.05-30.48-.1-4.47-.06-6.23,1.68-6.17,6.23C1204,708.35,1203.84,722.67,1203.84,737Zm0-104.45c0,7.17.12,14.33,0,21.49-.1,4,1.53,5.84,5.56,5.81,10.49-.06,21,.1,31.48-.06,8.19-.12,13.94-5.64,14.1-13.77q.35-17.49,0-35c-.16-7.57-5.3-12.95-12.87-13.31-8.47-.4-17-.44-25.47,0-7.84.38-12.64,6-12.72,13.86C1203.78,618.56,1203.84,625.56,1203.84,632.55Z" transform="translate(-638.24 -270.09)"/><path class="cls-1" d="M875.78,611.89c-7.07-6.59-14.79-11.16-24-13.24-25.06-5.7-49.66,10.28-55.16,36-5.27,24.67,11.11,49.58,35.82,54.42a30.1,30.1,0,0,0,6.4.95c4.08-.11,7.41.54,10.74,3.57,2.13,1.94,6.13,2.46,9.32,2.52,13.82.26,27.65.11,41.48.11h5.12c-12.54,18.94-45.17,35.61-77.93,29.64-36.69-6.7-63.7-34.82-68.29-73.09-4-33.65,13-67,45.7-83.48,31.39-15.75,68.28-8.64,89.08,10.36Z" transform="translate(-638.24 -270.09)"/><path class="cls-1" d="M907,621.24c-6.12-8.72-15-4-23.07-6.33,2.88-5.33,5.27-10.55,8.34-15.34,16-24.91,31.52-50.12,48.4-74.41,12.43-17.9,26.67-34.61,44.27-47.84,20.11-15.14,43.39-23.49,67.3-30.52a181.23,181.23,0,0,1,57.66-6.94c16,.52,31.95.11,48.82.11,0,8.69.1,17.1-.2,25.5,0,.67-2.76,1.77-4.25,1.78-21.82.11-43.67-.66-65.46.23-42.54,1.74-81,15.41-112.95,44-9.53,8.54-16.34,20.5-23.11,31.68-14.73,24.31-28.63,49.12-42.88,73.72C909.12,618.13,908.26,619.3,907,621.24Z" transform="translate(-638.24 -270.09)"/><path class="cls-1" d="M1001.3,651.26H934.14c-1.06-9.51-1.94-18.71-3.16-27.87a25.16,25.16,0,0,0-2.65-9c-3.45-6.06-2.13-11.17,1.61-16.46,2.67-3.79,4.75-8,7.07-12C962.12,592.3,992.24,620.25,1001.3,651.26Z" transform="translate(-638.24 -270.09)"/><path class="cls-1" d="M853,655.51c0-8.83.13-17.66,0-26.49-.09-3.86,1.25-5.39,5.19-5.34,12.33.15,24.66.13,37,0,3.72,0,4.92,1.47,4.89,5.08q-.16,27,0,54c0,4-1.67,5.22-5.41,5.18-12-.13-24-.18-36,0-4.46.08-5.8-1.71-5.69-6C853.19,673.18,853,664.35,853,655.51Z" transform="translate(-638.24 -270.09)"/><path class="cls-1" d="M866.62,615.17c-3.58,0-5.85,0-8.11,0-9.53.24-13.64,4.37-13.66,13.86,0,15.82,0,31.64,0,47.46v4.36c-12.05,3.71-29.32-5.6-36.69-19.53-8.17-15.45-4.12-35.66,9.36-46.67A38.61,38.61,0,0,1,866.62,615.17Z" transform="translate(-638.24 -270.09)"/><path class="cls-1" d="M1171.11,406.29c-11.55,4.65-13.34,14-12.6,24.81h-69.33V398.46c1.46-.1,2.9-.28,4.34-.28q28.23,0,56.45,0C1159.91,398.2,1165.77,400.43,1171.11,406.29Z" transform="translate(-638.24 -270.09)"/><path class="cls-1" d="M1093.53,475.84h5.26q30,0,59.9,0c7,0,8.13-1.12,8.14-8.05,0-14.31.05-28.63,0-42.94,0-4.85,2-8.31,6.34-10.35,2.39-1.11,4.27-.72,4.78,2.22a51.86,51.86,0,0,1,1.15,8.36c.1,20.13.07,40.27.06,60.4,0,.64-.14,1.29-.29,2.53h-75.76C1093.37,488,1092.09,486.45,1093.53,475.84Z" transform="translate(-638.24 -270.09)"/><path class="cls-1" d="M924.77,651.37H908.94c-4.23-14.24,5.15-23.87,11.1-35.87C924.72,627.71,925.71,639.19,924.77,651.37Z" transform="translate(-638.24 -270.09)"/></svg>