<svg id="Layer_1" data-name="Layer 1" xmlns="http://www.w3.org/2000/svg" viewBox="0 0 258.07 384"><defs><style>.cls-1{fill:#fff;}</style></defs><path class="cls-1" d="M1089,732H853.5V686.88H831.37a17,17,0,0,1-.22-1.74c0-30.25-.63-60.52.22-90.74.88-31.09,14.82-55.88,40.43-73.6,7.1-4.91,15.2-8.37,23-12.55l-1.92-3c-6.05-9.49-10.87-19.71-11.51-30.94-1-16.94-1.8-34-.74-50.92,2.06-33.06,19.27-56.3,49.63-69.36,7-3,14.84-4.07,22.29-6h15c2.56.49,5.11,1,7.68,1.47,34.78,6.2,62.73,37.58,64.31,72.78.62,13.85.36,27.74.24,41.61a77.2,77.2,0,0,1-13.38,42.64c-.51.76-.89,1.61-1.36,2.48,3.06,1.24,5.88,2.26,8.59,3.5a78.5,78.5,0,0,1,8.34,4.22c30.71,18.62,46.5,46,46.87,81.82.36,33.62.07,67.24.09,100.86C1088.88,710.26,1089,721.13,1089,732Zm-22.79-22.66c.07-.94.15-1.55.15-2.15,0-37,.29-74-.1-111-.37-33.51-24-61.34-56.9-67.85a10,10,0,0,0-6.58,1.23c-15.06,9.26-31.31,13.59-48.94,12-6.14-.55-12.21-1.88-18.54-2.89.17.74.32,1.44.5,2.12,6,22.43,12,44.83,17.77,67.31.84,3.3,2.28,3.93,5.33,3.9,16.24-.12,32.49-.3,48.73,0,23.52.49,40.74,23.3,35.09,46.06-4.32,17.39-18.93,28.8-37.24,28.82q-62.43.09-124.85,0h-4.27v22.34ZM909.27,528.79a14.37,14.37,0,0,0-1.67.17,70.31,70.31,0,0,0-53.94,68.48c-.14,21.11,0,42.23,0,63.34v3.56h91.69Zm-6.11-89.46c0,10.37-1,20.7.2,30.75,3.42,27.54,25.95,47.55,54.33,49.38,25.5,1.66,50.06-16.11,57.43-41.56,3.65-12.62,1.68-25.52,2.27-38.57ZM968.65,664.5c12.38,0,24.34,0,36.31,0,9.57,0,16.52-6.48,16.38-15.17s-6.94-14.8-16.36-14.81q-20.4,0-40.79,0c-1.07,0-2.13.12-3.46.19C963.39,644.71,966,654.43,968.65,664.5ZM906.33,408.89l75.54-33.66C952.47,361.91,915.77,378.6,906.33,408.89Zm40.19,6.75.09.6h69.46a53.64,53.64,0,0,0-11.37-24,4.08,4.08,0,0,0-3.63-.75c-3.62,1.32-7.1,3-10.62,4.59Z" transform="translate(-830.93 -348)"/></svg>