<svg id="Layer_1" data-name="Layer 1" xmlns="http://www.w3.org/2000/svg" viewBox="0 0 801.02 639.62"><defs><style>.cls-1{fill:#fff;}</style></defs><path class="cls-1" d="M896,281.53c-4.54-6.87-8.27-13-12.58-18.67-.93-1.22-4.23-1.73-5.91-1.12-5.41,1.95-8-.22-10.38-4.88-17.48-33.63,3.68-77.93,41.3-85.72,20.24-4.19,39.61-2.51,56.15,11.39,12.59,10.59,19.19,24.88,23,40.56.31,1.29-.48,3.13-1.3,4.34-1,1.48-2.6,2.55-3.92,3.82-6.89,6.68-6.89,6.68-2.32,14.83s9.29,16.51,14.31,25.44c3-2.54,5.57-5.13,8.56-7,2-1.27,5-2.73,6.91-2.14,16.06,4.93,30.88,12.17,43.16,24.08,9.16,8.89,11.73,19.21,8.74,31.44-3.13,12.76-5.91,25.61-8.65,38.46-.4,1.91-.41,4.48.56,6,9.43,14.71,19.47,29,28.63,43.91,9.07,14.72,17.33,29.93,26,45.12,5.15-1.53,10.34-7.59,15.62-1.45,3.92,4.55,0,8.64-2.89,12.42,4.89,1.54,10.31,2,13.91,4.75,3.44,2.67,5,7.79,7.74,12.47,1-.52,3.23-1.74,5.49-3,14.41-8,28.76-16.19,44.88-20.32,13.24-3.39,25.87-1.62,37.08,6.56,11,8,11.52,17.83.38,25.5s-23.44,13.87-35.24,20.69a46,46,0,0,1-4.86,2.56c-21.63,9.33-35.93,26.92-50.47,44.37-17,20.39-35,39.77-57.29,54.67-16.72,11.2-34.5,19.51-55.36,18.4-7.77-.41-14.84-2.42-21.4-7.12C991.14,611.31,976,601.35,961,591c-2.72-1.88-4.62-1.66-7.55-.11-10,5.3-20.16,10.21-30.38,15-28.9,13.59-58,26.66-86.65,40.82a31.48,31.48,0,0,0-16.83,19.77C808.26,704,787.19,734.44,752.14,754c-3.39,1.89-6.26,4.94-8.92,7.86-8,8.73-15.39,17.81-19.19,29.42-1.46,4.47-4.33,8.62-7.17,12.47-3.22,4.36-8,5.75-13.37,4.73-14.53-2.78-27-10.26-39.34-17.77-3-1.81-5.85-3.78-8.67-5.61-4.5,4.85-8.58,9.89-13.31,14.21-8.49,7.74-13.16,7.35-23.43,2.37-5.79-2.8-12.77-3.16-19.22-4.57-5.85-1.29-11.92-1.91-17.54-3.85-18.34-6.35-36.57-1.44-54.84,0-1.4.11-2.68,1.43-4.12,1.7-4.52.84-9.54,3-13.52,1.78-5.29-1.58-9.29-.44-13.71,1.56-11.42,5.15-23.45,6.2-35.69,4.51-15.67-2.16-26-19.47-21.4-35.75,3.49-12.51,11.4-22.45,19.19-32.44,1.62-2.08,3.32-4.09,5-6.15-10.32-16.31-15.09-34.23-17.28-52.89-.53-4.5-.47-9.61,1.14-13.72,7.9-20.07,21.63-36.48,34.35-53.7-3.15-8.7-6.46-17.88-9.83-27-1.6-4.34-.65-7.48,3.31-10.25,19.77-13.85,39.31-28,59.12-41.81a75.64,75.64,0,0,1,34.18-13.1,5.78,5.78,0,0,0,4-3.23c7.49-24.77,26.77-39.75,52.89-38.43,25.61,1.29,46.83,19.15,53,44.7a10.07,10.07,0,0,0,6.06,7.57c9,4.4,17.57,9.47,26.41,14.12,15.33,8.07,19.66,21.61,19,37.7-.07,1.83-.21,3.66-.28,5.49a4.2,4.2,0,0,0,.41,1.14c23.61-4.21,47.33-8.64,69.76,5.66,9.47-8.69,18.72-17.8,28.62-26.12,17.83-15,36-29.53,54.15-44.21,3.48-2.81,5.3-9.86,3.6-13.73-.69-1.59-.62-3.54-.74-5.34-1.86-27.73,3.25-54.57,9-81.55,3-14.33,2.4-29.46,3.13-44.25.92-18.79,1.6-37.59,2.21-56.39a6.24,6.24,0,0,0-2.14-4.36c-4.16-3.33-8.59-6.31-12.92-9.42-5.83-4.21-6.09-6.45-1.08-11.38C887.18,289.77,891.46,285.83,896,281.53Zm4.22,157.52c-.47,1.63-.84,2.89-1.18,4.15-4.68,17.24-4.71,34.86-4.69,52.55,0,4.82,1.81,7.13,5.76,9.13a69.14,69.14,0,0,0,82.74-15.08c1.94-2.12,2.45-4,1.42-6.68-4.88-12.76.41-22.94,8.41-32.42a76.92,76.92,0,0,0,7.09-9c7.15-11.62,14-23.43,21.11-35.07,1.65-2.71,1.4-4.66-.55-7.1-5.91-7.42-11.46-15.13-17.44-22.49a12.27,12.27,0,0,0-6-3.77C989,371.2,983,367,978.94,360c-7.1-12.44-2-25.14,11.72-29.06,10.69-3.06,21.4-1.74,32.17-.11,9.42,1.43,17.21,4.93,21.78,13.79.09.19.6.16,1.34.33,2.21-10.75,4.28-21.51,6.66-32.2,1.65-7.42-.64-13.27-5.8-18.56-9.91-10.17-22.15-16.34-35.3-20.94-1.32-.46-3.41.3-4.77,1.12-7,4.22-13.54,9.1-20.71,12.89-15.56,8.24-31.34,16.08-47.19,23.74-1.91.92-5.14.38-7.21-.62-3.37-1.63-6.28-4.2-8.85-6-14.21,8-15.88,20.55-14.4,34.45l20.07,4.52c-1.62,14.9-3.17,29.13-4.68,43.36-.13,1.26-.34,3.46.19,3.7,4.72,2.18,1.72,5.9,1.75,8.78,0,3.45.25,8.88-1.64,10-5.62,3.29-3.28,8.37-4.92,12.63l4.76,2.22c-1.13,6.52-2.23,12.85-3.41,19.62ZM569.73,526c-8.82.78-16.5,2.41-23.05,6.86-21.34,14.49-42.5,29.23-63.62,44-1,.7-1.62,3.17-1.23,4.46,4.69,15.56,11.2,30.31,21.07,43.31,3,3.91,6.87,7.18,10.65,10.37,1.11.94,3.77,1.4,4.9.72,5.66-3.39,11-7.35,16.57-10.87,1.5-1,4-1.93,5.23-1.3,1.51.79,2.4,3.15,3.09,5,.34.93-.39,2.25-.64,3.38-2.94,13.12-2,15.26,9.46,22.32,16.05,9.87,33,16.16,52.14,11.66,22-5.15,42.51-12.77,54.59-34,3.6-6.34,4.44-6.32,11.14-3.24,8.43,3.86,17,5.41,23.9-2.33,7.12-8,14.26-16.33,19.72-25.5,6-10.05,7.29-21.67,5.32-33.37-1.15-6.86-4.15-12.69-10.38-16.29-9.26-5.36-18.61-10.56-28.33-16.06-1.09,6.74-1.27,12.53-3,17.81-5.52,16.72-11.88,33.17-17.39,49.89-2.5,7.59-7.43,12.46-14.12,15.93a44.65,44.65,0,0,1-26.63,4.9c-15.39-2-26.9-9.13-31.22-25.18-1.42-5.29-3.43-10.42-5.29-15.58C576,564.66,566.8,547.08,569.73,526Zm541.86-14.36c-.5-.46-.95-.92-1.46-1.31-12.58-9.92-23.71-20.92-28.19-37a8.14,8.14,0,0,0-2-2.73c-11.28-12.67-22.68-25.24-33.83-38-5.74-6.59-11-13.57-16.74-20.63l-1.57,2.4c-10.1,15.4-20.24,30.78-30.29,46.22a64.45,64.45,0,0,0-4.51,8.29c-1.7,3.7-1,7,1.94,10,11.67,11.72,17.29,25.77,16.17,42.42-.11,1.52.08,3.57,1,4.57,8.35,9,16.89,17.81,25.5,26.81,9.54-11,21.71-18.23,34.57-24.19S1098.35,517.2,1111.59,511.61ZM994.51,493.74c-9.14,6.72-17.58,13.78-26.88,19.42-5.26,3.19-8.24,6-9.59,12.53C954,545.54,942.35,561,926.5,573.37l-58.1,45.46a4.47,4.47,0,0,0,3.57-.46c14.37-6.57,28.83-13,43.08-19.77,12.88-6.16,25.47-12.92,38.34-19.1a8.9,8.9,0,0,1,6.87.06,128.47,128.47,0,0,1,14.53,8.76c13.24,8.93,26.38,18,39.54,27,17.43-8.93,26.84-31.85,20.55-50.09a8.82,8.82,0,0,0-2-2.79c-7.77-8.47-15.12-17.39-23.51-25.19-6.35-5.91-9.51-11.85-8.4-20.75C1002.05,507.92,998.91,500,994.51,493.74ZM529.22,764.29a14.14,14.14,0,0,0,1.67-.77c19.54-13,39.11-26,58.53-39.13a10,10,0,0,0,3.45-5.54c2.84-11.74,7-22.77,13.82-32.93,7.06-10.57,24.19-13.16,32.65-8.5,7.33,4,14.16,9,21.75,13.9,2.43-1.34,4.59-3.41,3.21-8.11-1.16-3.91-1.17-8.23-1.25-12.38-.17-8.71,0-17.42,0-27.46-15.36,20.79-36.72,27.91-59.15,32.57-24,5-44.26-4.86-63.93-17.77-10.73,16.64-25.41,29.28-39.1,42.85a4.18,4.18,0,0,0-1.21,3.29c2.73,10.12,5.53,20.22,8.61,30.23,1.11,3.63,3.87,5.4,8,5.56A58.71,58.71,0,0,1,530,742c6.24,1.77,7.59,7,3.43,12-1.88,2.26-4.3,4.06-6.72,6.28Zm476.43-426c0,.18-.09.37-.13.55-2.82.17-5.65.24-8.46.56a22.71,22.71,0,0,0-4.83,1.18c-5.08,1.72-7.1,4.69-6.26,9.83,1.15,7,5.66,11.85,12.31,12.79,6.42.91,10,4.53,13.53,9,2.47,3.14,5,6.22,7.52,9.33,20,24.73,39.83,49.52,59.92,74.13,5.45,6.69,11.62,12.12,14.76,21.15,4.36,12.56,14.84,21.46,26.35,28.38,4.86,2.92,6.47,2.44,7.56-3.25a206.39,206.39,0,0,0,2.74-23.7c.09-1.31-1.81-3.55-3.23-4-2.78-.94-5.89-.87-8.84-1.34-4.87-.78-10.43-.62-10.88-7.72,0-.45-.81-.86-1.24-1.29-2-2-4.5-3.74-6-6.09-3.51-5.64-6.38-11.68-9.8-17.38-18.53-30.92-37.07-61.84-55.9-92.59a14.68,14.68,0,0,0-8.1-5.87C1019.83,340.15,1012.68,339.45,1005.65,338.3Zm110.4,182.61c-8.59,3.35-17.31,6.58-25.9,10.13-13.56,5.61-26.76,11.94-38.31,21.2-4.92,3.94-9.32,8-6.81,15.43a22.76,22.76,0,0,1,.69,6.93c.17,12-1,23.7-8.73,33.61-2.8,3.61-6,6.89-9.33,10.67,1.17.12,1.95.26,2.73.28,15.26.4,28.64-5.35,41.27-13.1,27.29-16.75,47.71-40.76,67.94-64.93.14-.17,0-.61-.06-.92C1128.19,539.19,1125,536.57,1116.05,520.91ZM746.39,745.52c2-1,2.73-1.29,3.43-1.7,32-18.63,50.72-47.29,61-82a30.37,30.37,0,0,1,8.21-13.91l3.92-3.73c-7.38-10.94-15.6-20.43-27.63-25.76-1.65-.73-4.05-1.26-5.53-.6-7,3.16-11.83,13.33-10.64,21a15.35,15.35,0,0,1-.41,7.2c-6.67,19.06-14.88,37.38-26.74,53.91-5.63,7.84-11,15.88-16.31,23.94-.87,1.31-1.7,3.77-1.07,4.76C738.33,734.42,742.46,740,746.39,745.52ZM510.67,644.82c-11.19-6.47-17.77-16.47-24.82-28.18-9.51,14.64-18.58,28.5-27.51,42.44-3.5,5.46-3.78,11.5-2.89,17.81,3,21.18,10.37,40.44,23.38,57.57,8.64,11.38,17,23,21.45,36.89,1.1,3.43,3.21,6.58,5.12,9.68,4.52,7.35,8.67,8.25,16.14,3.92,3.76-2.18,5.35-4.84,2.81-9-2.88-4.67-5.58-9.44-8.56-14-2.28-3.53-1.73-6.2,1.79-8.38,1.42-.87,2.81-1.81,4.2-2.72a12.64,12.64,0,0,0-5.86-1c-7.91.09-13.25-3.81-16.45-10.79a61,61,0,0,1-2.5-7.57c-4.74-15.4-9.14-30.92-14.38-46.15-1.66-4.83-1.06-7.13,3.18-9.69C497.67,668.48,504.18,656.89,510.67,644.82Zm102.2,49.38c-1.52,2.82-2.86,5-4,7.39a95.39,95.39,0,0,0-8.59,34.16c-1.4,19.81,3.12,37.85,17.77,52.06,11.08,10.74,12.75,10.68,22.61-.75,18-20.86,20.15-44.72,11.33-70.2-1.6-4.61-3.73-7.07-9-5.25-1.44.5-3.3.1-4.91-.21C627.55,709.37,619.25,703.78,612.87,694.2Zm52.42,31.06c12.2-1.9,23.25-6,32.65-13.9a12.18,12.18,0,0,0,3.82-5.68c3.74-13.77,7.73-27.5,10.57-41.47a93.71,93.71,0,0,0-.8-41.69C701,634.16,691,645.61,673.15,640.15a107.37,107.37,0,0,0-.46,10.78c.68,11.89,1.7,23.77,2.3,35.66a10.19,10.19,0,0,1-1.92,6.68c-2.93,3.34-6.84,5.81-9.88,9.07-1.72,1.84-3.85,4.81-3.45,6.79C660.83,714.42,663.19,719.45,665.29,725.26ZM770.82,622.49c-9.71,2-19.83,4.12-26.75,13.81-5.9,8.24-12.9,15.69-19.3,23.59a12.74,12.74,0,0,0-2.42,4.8c-3.22,12.55-6.38,25.12-9.38,37.72-1.78,7.47-4.42,14.33-11.29,18.67,1.78,3.69,3.47,3,5.84,1,10.41-8.85,20.69-17.88,31.53-26.16,7-5.32,11.94-11.85,16.05-19.38C764.29,659.71,770.86,642.1,770.82,622.49ZM909.35,519.16c-3.41-1.29-6.41-2.89-9.6-3.43-1.52-.26-4.67,1.23-4.89,2.36-1.25,6.51-6.2,9.32-11,12.76-28.79,20.82-54.62,45.07-80.31,69.49-2.35,2.23-4.19,5-6.39,7.69l13.72,7.73c25.43-22.85,50.63-45.82,76.24-68.33C896.34,539.38,902.61,529.41,909.35,519.16ZM792.62,597.32c-5.22-1.84-10-4.2-15-5.19-14.43-2.84-28.74-1-43,1.88-5.41,1.09-9.55,2.83-10.88,8.9-.54,2.49-2.45,4.68-3.56,7.08a6.71,6.71,0,0,0-.83,3.69c1.86,10,3.89,20,5.88,30,4.34-5.13,9.17-10.53,13.65-16.2A32.23,32.23,0,0,1,756.93,616c8.21-2,16.5-3.79,24.69-5.89a9.34,9.34,0,0,0,4.8-2.91C788.55,604.46,790.14,601.33,792.62,597.32Zm-324.48,140c-3.42,4.49-7.35,8.7-10.14,13.56-3.92,6.86-7.82,13.94-10.2,21.41-2.61,8.18,3.79,18.57,12.14,20.22,12.9,2.55,25.43.86,36.85-5.6C488.81,769.54,481.89,751.8,468.14,737.37ZM938.4,299.16l47.3-22.89L968.28,245.2C955.62,262.07,946.66,279.92,938.4,299.16Zm-334.13,489c-3-5.75-6.92-10.64-8-16.11-2.26-10.9-9.22-16.22-18.61-20.31-7.91-3.44-7.72-3.89-13.84,1.34,1.73,8.42,3.31,16.54,5.15,24.6.29,1.26,1.59,3,2.71,3.25C582.29,783.41,593,785.67,604.27,788.12ZM658,578.43c-22.32,7.75-44.06,6.24-66.41.54,1.24,3.56,2.47,6.15,3,8.87.73,3.7,2.77,5,6.37,5.58A156.07,156.07,0,0,0,639.74,595c9.28-.79,16.32-3.62,17.49-14.13A17.61,17.61,0,0,1,658,578.43ZM496,692.57c10.11-10.58,19.64-20.25,28.8-30.26,5.58-6.1,10.81-12.65,5.82-21.61-8.57,3.71-8.51,3.74-12.93,11.8-6,11-13,21.31-23,29.22-.9.72-1.24,2.73-1.08,4C493.87,687.53,494.81,689.21,496,692.57Zm230.49,43.21-17.43,18.57,14,16L739,751.61Zm-59.81,15.05c5.3-.68,10.07-2,14.78-1.74,10.13.49,14.89-4.45,16.06-13.92.06-.49.38-.94.44-1.42.32-2.78-4.68-7.12-7.26-6.21-7.94,2.8-15.85,5.68-24,8.62Zm-107.26,29c-1.51-7.21-2.9-13.88-4.48-21.43l-20.72,14.72c.64,3.1,1.2,5.83,1.88,9.11Zm92.77-80.66c-3.12-6.44-16.84-14.77-23.56-14.15-1.6.15-3.54.51-4.58,1.53s-1.7,3.28-1.19,4.35C627.34,700.2,643.18,704.55,652.22,699.21Zm-4-94.65H601.45C612.85,617.38,636.66,617.31,648.2,604.56Zm244-305.6,11.21,8,12.69-11.05-10.15-10.38ZM707,742l18.39-20.07-1.35-1.2C718.09,727.58,707.84,730.61,707,742Zm-116.8-6.29-10,6.42,10,5.19Z" transform="translate(-437.61 -169.13)"/></svg>