<svg id="Layer_1" data-name="Layer 1" xmlns="http://www.w3.org/2000/svg" viewBox="0 0 443.07 791.8"><defs><style>.cls-1{fill:#fff;}</style></defs><path class="cls-1" d="M782.51,535.51h-6.8c-45.5,0-91-.07-136.5,0-23.33.05-42.55-8.35-56.74-27.17-9.38-12.44-13.07-26.65-13-42.15.15-46.33,0-92.67,0-139v-216H586v6.53q0,174.73,0,349.49c0,24.78,14.68,44.32,37.83,50.16a54.77,54.77,0,0,0,13.33,1.54q153.75.14,307.5.05c29.75,0,51.31-21.71,51.32-51.59q0-174.75,0-349.5v-6.63h16.51v5.3q0,174.75,0,349.49c0,31.43-16.35,56-44.53,65.48-8.19,2.75-17.31,3.74-26,3.81-45.16.36-90.33.17-135.5.17h-6.86V669c8.57,0,17,0,25.48,0,8.68,0,11.43,2.69,11.43,11.31q0,93.24,0,186.5c0,22.64-13.92,36.16-36.69,36.18h-17.5c-23,0-36.73-13.61-36.77-36.63q-.09-70.75,0-141.5c0-14.83,0-29.67,0-44.5,0-8.81,2.57-11.35,11.28-11.37h25.72ZM762.33,685.66a21.86,21.86,0,0,0-.31,2.4q0,90.95.05,181.88c0,9.28,6.87,15.94,16.22,16.16,7.49.18,15,.08,22.48.06,13.16,0,19.22-6.1,19.23-19.27q0-87.95,0-175.88v-5.35Z" transform="translate(-569.44 -111.21)"/><path class="cls-1" d="M915.18,477.51c-32.49-1.4-60.62-13.35-86.09-32.12-35.15-25.9-58.51-60.09-69.5-102.43-6.76-26-6.58-51.76,2.15-77.66,5.1-15.14,14.51-21.71,29.86-23.7,35.25-4.56,66.57,5.32,95.43,24.45,42.38,28.09,69.1,67.28,79.4,117,5.86,28.27,3.64,56.05-10.95,81.77a14.48,14.48,0,0,1-8.15,6.4C936.74,473.84,925.92,475.5,915.18,477.51ZM954.27,400c-3.13-12.23-5.13-24.66-9.46-36.22-19.42-51.77-55-87-108.34-103.46a9.89,9.89,0,0,0-6.5.48c-23.14,10.71-41.35,27.58-57.55,46.85a8,8,0,0,0-1.81,5.34c1,8.08,1.74,16.25,3.66,24.13a162.42,162.42,0,0,0,40.8,74.9c21,21.95,45.64,38.1,75.54,45.25a10.47,10.47,0,0,0,6.95-.85,163.08,163.08,0,0,0,52.56-46.72C952,407.09,952.75,403.63,954.27,400ZM773.2,280.37l1.47.47,28.1-23.52-.49-1.36c-6.4,1.32-12.81,2.61-19.19,4a3.06,3.06,0,0,0-1.9,1.48C778.46,267.72,775.85,274.05,773.2,280.37ZM950.53,437.11l-1.36-.71L923,459.59a85.13,85.13,0,0,0,17.74-2.67,3.61,3.61,0,0,0,2.19-1.78C945.52,449.17,948,443.13,950.53,437.11Z" transform="translate(-569.44 -111.21)"/><path class="cls-1" d="M828.29,323.83c-2.79-3.46-5.48-6.62-8-9.93-3-4-2.63-8.31.69-11.18s8.17-2.43,11.5,1.35c2.75,3.11,5.31,6.38,7.93,9.56,7.92-4.4,11.4-4.65,14.38-1.14,3.37,4,2.54,7.22-3.73,14.17q7.24,8.86,14.53,17.75a16.91,16.91,0,0,0,1.38,1.31c7.37-4.55,11-4.74,14.15-.79s2.38,7-3.75,13.84l17,20.77c8.56-4.41,11.8-4.55,14.72-.73,3.08,4,2.22,7-4,13.73,2.27,2.84,4.67,5.61,6.8,8.57,2.85,4,2.25,8.26-1.31,11.05-3.3,2.59-7.54,2.24-10.74-1.17-2.49-2.66-4.71-5.57-7-8.34-7.46,4.41-11,4.56-14.24.72s-2.16-7.36,3.67-13.65L865.9,369.66c-4.06.95-7.56,2.14-11.12,2.4-1.38.11-3.26-1.6-4.33-2.95-2.85-3.63-1.72-7.09,4.15-13.21-5.18-6.33-10.4-12.73-15.58-19.07-8.41,4.26-11.91,4.29-14.77.27C821.57,333.35,822.61,329.71,828.29,323.83Z" transform="translate(-569.44 -111.21)"/></svg>