<svg id="Layer_1" data-name="Layer 1" xmlns="http://www.w3.org/2000/svg" viewBox="0 0 678.94 737.06"><defs><style>.cls-1{fill:#fff;}</style></defs><path class="cls-1" d="M577.38,749.51h-6.84q-44.25,0-88.49,0c-14.33,0-20.5-6.1-20.5-20.3q0-245.46,0-490.92c0-34.55,19-62.36,50.44-72.66a88.56,88.56,0,0,1,27-4q204-.36,407.94-.14c35.27,0,62.56,18.49,73.2,50.32,3,8.83,3.75,18.56,4.29,27.95.7,12.26.17,24.59.17,37.7h6.2q44.75,0,89.49,0c14.09,0,20.14,6,20.15,20q0,262,0,523.92c0,34.72-18.83,62.28-50.27,72.81a84.88,84.88,0,0,1-26.46,4.06q-204.72.38-409.44.14c-39.39,0-69.13-24.66-75.72-62.48a96.22,96.22,0,0,1-1.1-15.93c-.11-21.33,0-42.66,0-64ZM716.22,865.16H964.48c34,0,68,.21,102-.11,23.67-.23,40.71-17.31,40.75-40.88q.22-134.48-.07-268.95a8.63,8.63,0,0,0-3.13-6c-14.81-11.07-29.89-21.77-44.69-32.84-3.06-2.28-5-2.42-8.13-.13-17.45,12.83-35.06,25.42-52.63,38.06-9.79,7-15.25,7-24.88.11-17.57-12.66-35.18-25.25-52.63-38.07-3-2.22-5-2.41-8.17-.13-17.4,12.6-35,24.94-52.52,37.35-10.13,7.17-15.31,7.13-25.28-.11-17.52-12.73-35.08-25.39-52.51-38.23-2.82-2.08-4.7-2.37-7.7-.11q-21.55,16.23-43.52,31.9c-3.66,2.6-5,5.34-5,9.82q.21,131.24.06,262.45c0,5.81.14,11.82-1.23,17.39C722.82,846.23,719.33,855.49,716.22,865.16ZM598.07,194.84C610,213,610.71,232.32,610.7,252q-.23,282.94-.08,565.87c0,3.17,0,6.35.22,9.49,1.31,15.77,9,27.55,23.37,34,14.51,6.58,29,5.43,42.16-4,12.55-9,17-21.76,17-36.93q-.2-260.7-.06-521.38a44.92,44.92,0,0,1,.59-8.45c1.41-7.39,7-12.28,14.49-13,2.31-.22,4.66-.21,7-.21h276c0-9.2.09-17.51,0-25.82-.11-7.66.38-15.44-.81-22.94-3.28-20.48-21.19-34.11-42.85-34-114.48.33-229,.16-343.42.16ZM577.38,600.31V440.89q0-100.75,0-201.49c0-10.09-1.86-19.56-8-27.81a41.62,41.62,0,0,0-45.85-15c-17.7,5.7-28.83,20.66-28.84,39.45q-.09,179.75,0,359.48c0,1.58.17,3.17.26,4.83ZM809.19,310.87c0,2,0,3.6,0,5.23,0,3.66.08,7.33-.05,11-.34,9.66-7.23,16.63-16.36,16.7s-16.18-6.93-16.61-16.53c-.25-5.43,0-10.89,0-16.47h-49.2V393h380V310.85h-49.12c0,3.46.06,6.59,0,9.72a67.68,67.68,0,0,1-.51,9.46,16.33,16.33,0,0,1-32.41-1.26c-.28-3.15-.17-6.32-.23-9.49-.16-10.1,1.39-8.7-8.7-8.75-13.46-.08-26.92,0-41,0,0,5.43.07,10.39,0,15.34-.18,10.49-7.26,18-16.79,17.94S942,336.5,941.86,326c-.08-4.95,0-9.91,0-15.19H892c0,5.23.05,10.19,0,15.14-.13,10.31-6.9,17.67-16.32,17.82-9.61.15-16.6-7.3-16.72-17.89-.06-5,0-9.91,0-15ZM726.72,509.29c.82-.14,1-.12,1.14-.21q20-14.54,40-29.09c8.09-5.89,14.18-5.93,22.31-.09,18,12.93,36,25.8,53.82,39,3.36,2.48,5.39,2.2,8.57-.17,17.48-13,35.15-25.84,52.77-38.7,8.09-5.9,14.15-5.94,22.29-.08,18,12.94,36,25.81,53.82,39,3.34,2.48,5.37,2.2,8.56-.1,17.82-12.87,35.8-25.51,53.76-38.17,7.67-5.4,14.52-5.36,22.13,0,6.39,4.51,12.72,9.12,19.09,13.66,7.13,5.09,14.27,10.16,22,15.63v-83H726.72ZM576.92,716v-82.1H495.08V716Z" transform="translate(-461.53 -161.47)"/></svg>