<svg id="Layer_1" data-name="Layer 1" xmlns="http://www.w3.org/2000/svg" viewBox="0 0 827.88 639.54"><defs><style>.cls-1{fill:#fff;}</style></defs><path class="cls-1" d="M653,471.49c-10.11-13.91-12.09-28.5-9.53-43.73,6-35.57,27.18-59.49,58.7-75.25,16.33-8.16,34.14-10.89,51.82-14.16C793.8,331,833.84,327,874.31,330c40.29,3,80.2,9,118.43,22.32,28.46,9.9,49.26,29,55.32,59.84,2.4,12.23,2.48,25.21,1.57,37.7a179.19,179.19,0,0,1-7.1,38.66c-2.42,8-7.67,15.58-13.19,22-35.69,41.82-71.8,83.29-107.77,124.87-.87,1-1.69,2-2.83,3.42l6.56,4.66c-12.24,36.34-35.81,65.27-60.81,93.86C843.27,723.59,822,710.28,801.33,696a53.81,53.81,0,0,1-15.43-17.29c-12.14-21.42-9.54-42.13,4.26-62.34,14.93-21.87,29-44.31,43.45-66.51C841,538.41,848.46,527,855.8,515.69L777.71,504.4c2.38-11.16,4.77-21.45,6.76-31.82,2.57-13.35,6.76-26.38,5.76-40.36-3-42.58-49.91-70.93-88.94-53.49q-31.42,14-38.45,47.75C659.8,441.12,656.47,455.7,653,471.49Z" transform="translate(-406.97 -178.34)"/><path class="cls-1" d="M579.3,375.74c-9.74-10-18.83-19.44-28.19-28.64-.86-.83-3.76-.43-5.2.33-7.79,4.14-15.81,8-23,13-10.7,7.46-23,9.23-35.21,11.47-.78.15-1.55.39-2.25.56-.65,8.79-.64,8.85-10,10.67-7,1.36-14,2.53-21.8,3.92,3.48,9,6.75,17.49,10,26,1.79,4.66,3.58,9.32,5.3,14,.79,2.14,1.57,3.37,4.33,2.24,15.84-6.53,31.81-12.72,47.59-19.4,3.27-1.38,6.15-4,8.73-6.57,3.34-3.29,5.6-2.63,7.72,1.09.41.71.94,1.36,2,2.91-5.23,3.75-10,8.49-15.7,11-18.59,8.14-37.53,15.45-56.34,23.07a17.82,17.82,0,0,1-2.26.48c-9.26-26.17-21.51-51.28-27.69-79.43l29.3-4.9c.47,2.18.8,3.78,1.15,5.37.6,2.66-.23,3.94-3.17,4.25-5.1.54-10.15,1.52-15.14,2.3-.8,7.83.7,9.26,7.77,7.93,8.3-1.57,16.63-3,26-4.74-2.16-2.64-3.73-4.55-5.93-7.25,3.94-.66,7.11-1.42,10.33-1.69,11.75-1,21.65-7,32.29-11.21,11.71-4.59,21-11.23,27.59-22.24,5.25-8.82,11.78-16.88,17.91-25.51a29.12,29.12,0,0,0-3-2.15c-11.22-5.84-22.59-11.4-33.63-17.55-5.43-3-10.85-3.51-16.76-2.91q-42.74,4.33-85.48,8.48c-6.28.61-11.83-1.66-16.75-5.32-4-3-3.63-7.33.73-10.92a47.21,47.21,0,0,1,26.09-10.44c10.92-1,15.49-5.77,19.74-16.06,15.76-38.18,44.79-61.69,85.81-68,47.74-7.28,85.36,11,111.95,50.53,24.29,36.13,22.93,86.31-2,122.07-23.47,33.73-56.26,49.67-97.15,49.39a30.48,30.48,0,0,1-4.46-.44c-.42-.06-.77-.53-1.91-1.34Z" transform="translate(-406.97 -178.34)"/><path class="cls-1" d="M665.36,551.38c22.52,9.34,45.3,14.82,69.91,13.67-2,9.54-3.85,18.45-5.77,27.35q-15.33,71.46-30.73,142.89c-4.08,18.85-8.13,37.71-12.73,56.44-3.37,13.74-18.64,27.36-39.62,24.47-15.58-2.15-29.26-15.91-29.44-32.33-.1-8.83,1.87-17.8,3.73-26.53,10.54-49.44,21.34-98.83,32-148.23,3.8-17.55,7.51-35.12,11.28-52.68C664.33,555,664.77,553.57,665.36,551.38Z" transform="translate(-406.97 -178.34)"/><path class="cls-1" d="M726.34,555.3c-18.29-1.38-35.8-4.9-52.5-12.13a54,54,0,0,1-7.52-3.88C653.43,531,651.93,526,654.94,512.88c6.64-29,12.54-58.22,19-87.28,5.52-24.69,28.93-42.45,53.75-41.21,26.72,1.32,47.51,20.12,51.41,46,1.64,10.91-1,21.18-3.23,31.57-5.56,26-11.38,52-16.76,78.05-1.37,6.65-5.25,10.49-11.24,11.9C740.84,553.53,733.54,554.2,726.34,555.3Z" transform="translate(-406.97 -178.34)"/><path class="cls-1" d="M1038.9,522.26c.63,8.89,1.28,17.78,1.86,26.67,1.46,22.27,2.8,44.54,4.46,66.78.13,1.86,1.93,4.15,3.61,5.23,7.13,4.57,14.51,8.75,22.25,13.34-8.65,23.16-22.16,43.14-37.44,62.68l-94.78-61.05,98.65-114Z" transform="translate(-406.97 -178.34)"/><path class="cls-1" d="M1126.34,794.11c14-13.34,23.64-28.72,32.6-44.51,8.86-15.61,17.1-31.57,25.83-47.8,20.49,11.45,42.87,21.21,48.54,48,4.81,22.63-1.6,41.92-19.86,56-18.06,13.9-38.25,15.41-58.69,5C1145.19,805.82,1136.15,799.88,1126.34,794.11Z" transform="translate(-406.97 -178.34)"/><path class="cls-1" d="M552.41,307.51c-7,9.87-13.89,19.44-20.76,29a3.65,3.65,0,0,1-1.54,1.24c-14.58,5.75-27.59,15.61-43.92,16.82-1.49.11-3,.37-4.45.58-12.61,1.86-12.61,1.86-19.05-9.3a111.43,111.43,0,0,1-14.61-48.29l19.84-2c15.89-1.55,31.78-3.2,47.69-4.55a15.09,15.09,0,0,1,7.55,1.49C532.85,297.26,542.38,302.33,552.41,307.51Z" transform="translate(-406.97 -178.34)"/><path class="cls-1" d="M978,810c26.76-27.34,42-61.33,59.38-94.71,16.53,12.23,25.42,28,24.58,48.33-.91,22.1-11.16,38.85-31.36,48.46C1012.94,820.5,995.3,819.72,978,810Z" transform="translate(-406.97 -178.34)"/><path class="cls-1" d="M889.57,760c-5.21-.84-8.62-2.93-10.62-7a10.3,10.3,0,0,1,1.31-11.71c4.76-5.78,9.88-11.27,14.6-17.08a279.14,279.14,0,0,0,39.31-63.46c3.2-7.24,9.51-9.81,15.77-6.73,5.8,2.86,7.59,9.25,4.46,16.34a270.67,270.67,0,0,1-31.3,53.81c-8,10.62-16.74,20.7-25.47,30.74C895.63,757.22,892.29,758.36,889.57,760Z" transform="translate(-406.97 -178.34)"/><path class="cls-1" d="M960.1,804.2c-5.6-.87-9-3.31-10.76-7.71-2-4.8-.62-8.91,2.83-12.8,8.4-9.44,17-18.78,24.68-28.76a182.25,182.25,0,0,0,27-50.37c1.71-4.77,4.9-7.42,9.88-7.82,8.6-.7,14.44,6.92,11,15.33a354.22,354.22,0,0,1-15.42,33.47,212.27,212.27,0,0,1-40.82,53.32C966.17,801.11,962.93,802.44,960.1,804.2Z" transform="translate(-406.97 -178.34)"/><path class="cls-1" d="M1106.64,789.69c-3.19-2.4-6.82-4.2-9.06-7.08-2.59-3.33-2.28-7.64.36-11.2a77.86,77.86,0,0,1,6.31-7c20.48-21.43,36.55-45.64,46.82-73.57,2.77-7.54,8.48-10.75,15-8.66,6.18,2,8.69,8.72,6,16.17-9.67,26.58-24.21,50.28-42.63,71.63a199.53,199.53,0,0,1-14.17,14.77C1113.22,786.63,1110.29,787.63,1106.64,789.69Z" transform="translate(-406.97 -178.34)"/><path class="cls-1" d="M1062.85,720.47,1048,703.85l-1.7,1q2.91-3.93,5.8-7.87A282.53,282.53,0,0,0,1082,645.77c2.77-6.15,7.68-8.79,13-7.45,7.2,1.8,10.89,9,7.35,16.07-6.65,13.21-13.49,26.35-21,39.08C1075.89,702.75,1069.19,711.31,1062.85,720.47Z" transform="translate(-406.97 -178.34)"/><path class="cls-1" d="M567,374.17c-11.21,8.78-21,16.48-30.84,24.06a4.27,4.27,0,0,1-3.23.46,108.39,108.39,0,0,1-39.36-18.61c4.13-.8,7.52-1.18,10.73-2.14,5-1.51,10.21-2.9,14.85-5.26,8.6-4.36,16.91-9.3,25.22-14.2,2.53-1.49,4.1-1.62,6.37.68C555.78,364.22,561.21,368.85,567,374.17Z" transform="translate(-406.97 -178.34)"/></svg>