<svg id="Layer_1" data-name="Layer 1" xmlns="http://www.w3.org/2000/svg" viewBox="0 0 679 546.45"><defs><style>.cls-1{fill:#fff;}</style></defs><path class="cls-1" d="M1123.77,366.17c43,32.68,38.6,74.51-.35,103.84,16.4,13.55,30.93,28.5,30.89,51.52s-13.85,38.41-29.76,50.71c5.56,6.23,11.41,12.26,16.67,18.76,13.31,16.45,17.33,34.68,8.81,54.6-5.38,12.56-14.65,22.13-25.42,30.3-24.29,18.43-52.24,29.12-81,37.89-42,12.81-85.24,19.76-128.85,24.28a969,969,0,0,1-187.64,1.15C675.26,734.52,624,726.51,574.42,710c-26.46-8.83-52.11-19.58-73.75-38-11.16-9.47-20.06-20.51-23.61-35s-1.06-28.39,7.77-40.37c6.26-8.49,14-15.94,21.13-24-16.11-12.46-30.08-27.7-30.26-50.75s14.14-38.18,31.1-52c-16.87-13.58-31.07-28.75-31.09-51.74s13.7-38.11,30.72-51.64c-3.92-3.56-7.8-6.82-11.39-10.39C484.87,346,477.5,334.32,476,319.73c-2-18.58,5.93-33.43,18.57-46.06,16.32-16.33,36.42-26.72,57.53-35.33,39.26-16,80.34-24.9,122.09-31.24a927.8,927.8,0,0,1,168.4-9.87c72.31,2.24,143.85,10.26,213,32.79,24.6,8,48.4,18.08,69.11,34.15,13.29,10.31,24.32,22.35,28.35,39.3a47.56,47.56,0,0,1-8.15,40.31c-5.22,7.19-12.07,13.19-18.21,19.71C1125.78,364.44,1124.76,365.26,1123.77,366.17ZM842.33,432.33c4-9.85,7.5-18.65,11.31-27.29.53-1.21,2.72-2.22,4.23-2.36,7.63-.7,15.29-1.1,22.93-1.6,39.43-2.58,78.57-7.4,117.13-16.17,30.75-7,61-15.61,89.24-30.05,12.21-6.25,23.8-13.45,32.34-24.59,6.9-9,7.55-18.1,2-27.9-5.25-9.33-13.61-15.45-22.34-21-20-12.63-42-20.81-64.61-27.5-61.76-18.28-125.17-25.75-189.28-27.66-56.37-1.69-112.57.84-168.39,9.72-40.39,6.42-80.21,15-118,31-16.73,7.07-33,15.11-45.68,28.85-10.7,11.58-11.35,24.3-1.24,36.27,11,13,25.56,20.63,40.64,27.45,36.85,16.68,75.91,25.68,115.54,32.43,17.37,2.95,34.9,4.95,52.6,7.42V428a23.46,23.46,0,0,1-2.42,0c-10.74-1.28-21.51-2.42-32.22-3.91-51.64-7.14-102.34-17.83-150-40-1.09-.51-3.12-.55-3.93.12-7.4,6.14-15.27,11.89-21.72,18.93-6.84,7.48-7.87,16.69-2.67,26,6,10.67,15.4,17.82,25.6,23.94,28.8,17.29,60.68,26.31,93,34,36.18,8.62,72.94,13.66,110,16.91,2.23.19,4.66,2,6.35,3.67,5.51,5.51,10.3,11.8,16.15,16.89,7.58,6.6,16.73,9.63,26.92,7.69,12.19-2.32,20.35-10.31,26.54-20.35,2.36-3.83,4.9-4.87,9.14-4.91,53.22-.55,106.13-4.57,158.45-14.84,36.7-7.21,72.76-16.46,106.38-33.38,12-6,23.08-13.3,32-23.58s9.71-22.83.49-33c-6.09-6.7-13.62-12.12-20.72-17.84-1-.79-3.45-.53-4.82.12-37.09,17.38-76.31,27.89-116.49,34.46-29.22,4.78-58.75,7.71-88.21,10.85C873.63,431.24,858.61,431.43,842.33,432.33ZM816.47,610.71c53.33-.77,108.15-4,162.3-14.73,37.18-7.35,73.73-16.69,107.83-33.79,11.82-5.93,22.76-13.17,31.58-23.25,8.67-9.9,9.93-21.78,1.58-31.81-5.76-6.92-13.44-12.25-20.24-18.32-2.29-2.05-4.46-2-7.22-.6-22.33,11.09-46,18.67-70,24.77-61,15.45-123.26,21.67-186,22.94C779.5,537.08,723,534.08,666.88,525c-44.68-7.23-88.57-17.24-129.73-36.89a6.67,6.67,0,0,0-5.75.32c-6.38,4.77-12.91,9.51-18.52,15.13-11,11.05-10.55,24.88,0,36.48,8.69,9.56,19.23,16.43,30.56,22.15,29.51,14.89,61,23.77,93.16,30.81C695.29,605.87,754.86,610,816.47,610.71Zm-1.68,102.37c15.32,0,30.66.41,46-.08a755.94,755.94,0,0,0,136.11-17.11c31.14-6.77,61.66-15.64,90.17-30.33,11.44-5.89,22.27-12.69,30.88-22.53,9-10.31,10.19-22.12,1.5-32.61-5.53-6.68-13-11.75-19.5-17.63-2.63-2.37-5-1.88-8.11-.66-17.34,6.78-34.49,14.38-52.31,19.59-66.82,19.53-135.5,26.5-204.8,28A931.28,931.28,0,0,1,700,633.16c-56.22-6.94-111.54-17.25-163.33-41.55-1.26-.59-3.54-.72-4.48,0-7,5.53-14.65,10.63-20.55,17.23-10.19,11.39-8.91,24,1.51,35.31,8.64,9.39,19.17,15.93,30.31,21.64,29.89,15.34,61.94,24.33,94.6,31.17A772.11,772.11,0,0,0,814.79,713.08Z" transform="translate(-475.51 -196.77)"/><path class="cls-1" d="M870,242.71a264.15,264.15,0,0,1,61.89,15.72c13.57,5.31,26.41,11.95,37.58,21.44,8.37,7.1,15.47,15.1,17.95,26.32,2.58,11.69-1.21,21.9-11,28.89-13.44,9.61-28.87,11.44-44.73,11.27a156,156,0,0,1-19.9-1.51c-16.89-2.36-29.79,4.61-40.6,16.72-13,14.53-21.38,31.78-28.16,49.72-7.29,19.3-13.1,39.16-20.3,58.49A322.54,322.54,0,0,1,805.85,508c-3,5.58-8.36,10.56-13.81,14-9.89,6.18-20.28,4.22-28.66-3.27-20-17.89-33.86-39.33-34.64-67.2-.51-18-.25-36-.89-53.95A62.69,62.69,0,0,0,724.44,380c-3.44-10.18-11.14-14.66-22-14.35s-21.68,1.1-32.39.14a40.17,40.17,0,0,1-18.43-6.55c-11.49-7.9-11.27-20-8.36-32A110.28,110.28,0,0,1,662,286.67c5.24-6.95,12.72-12.83,20.31-17.27C702.54,257.55,725.11,252.15,748,248c3.41-.61,6.84-1.16,10.67-1.8-.75,2.85-1,5.53-2.17,7.72a7.4,7.4,0,0,1-4.36,3c-15.74,4.16-31.71,7.58-47.24,12.42-8.14,2.54-15.78,7.06-23.2,11.44-9.2,5.44-15.14,14.13-19.12,23.76A219.87,219.87,0,0,0,651.83,336c-2.31,9.47,2.85,17.19,12.52,18.82,9.41,1.58,19.13,1.33,28.72,1.72,3,.12,6-.48,9-.5,18.55-.08,31,10.16,33.85,28.59,1.4,9.17,1.76,18.54,2.17,27.83.77,17.61-.77,35.6,2.38,52.75,3.5,19.13,15,35.05,30.61,47.2,6.35,4.94,13.43,4.72,19.06-.88a71.29,71.29,0,0,0,11.67-15.36c9.81-17.43,14-37,20.25-55.76,9.15-27.4,19.12-54.42,36.24-78.06,9.6-13.24,21.22-24.51,38.22-26.71,8.92-1.15,18.21.09,27.29.84,13.48,1.12,26.65.36,39.27-4.81,16.28-6.66,20-18.85,10.19-33.55-6.37-9.59-15.81-15.7-25.55-21.14a196.73,196.73,0,0,0-64-21.92C876.16,253.8,871,251.38,870,242.71Z" transform="translate(-475.51 -196.77)"/><path class="cls-1" d="M815,236c10,0,20-.71,29.92.28,5.5.55,11.07,3.32,16,6.17,5.85,3.4,8.24,9.29,8.16,16.14-.09,8.15,0,16.31,0,24.47,0,15.31-7.55,24.19-22.92,25.92a207.31,207.31,0,0,1-23.92.84c-12.64,0-25.35.27-37.89-1-5.75-.57-11.51-3.92-16.61-7.07-4.72-2.9-6.68-8.09-6.67-13.8,0-9.49,0-19,0-28.47,0-10.7,5-18,15.34-21.27a62.12,62.12,0,0,1,15.15-2.59c7.8-.42,15.65-.11,23.47-.11Zm-.24,64c8.16,0,16.34.4,24.45-.15A46.65,46.65,0,0,0,853,296.43c4.29-1.7,6.45-5.32,6.31-10.32-.22-8.48-.05-17-.06-25.46,0-7.82-2.12-11.09-9.62-13.68a33,33,0,0,0-10.21-1.87c-16.3-.2-32.61-.3-48.91.05a39.56,39.56,0,0,0-12.93,3c-4.69,1.81-7.12,5.49-6.94,10.94.28,8.48.06,17,.08,25.46,0,7.43,1.92,10.66,8.88,13.19a37.77,37.77,0,0,0,11.16,2.11C798.74,300.21,806.74,300,814.72,300Z" transform="translate(-475.51 -196.77)"/></svg>