<svg id="Layer_1" data-name="Layer 1" xmlns="http://www.w3.org/2000/svg" viewBox="0 0 258.49 218.9"><defs><style>.cls-1{fill:#fff;}</style></defs><path class="cls-1" d="M972.32,576.09v-7.64H744.4V375.33h-9.12l12.39-18.14,12.31,18h-8.83V541l58.61-65,21.06,33,46.12-55.61c9.27,13.91,18.39,27.58,27.65,41.46L967,434l-10.1-7.46,30.86-9c-2.1,9.15-4.14,18-6.24,27.12l-10.14-7.41-67.84,66-27.17-40.74-46.24,55.75c-7.1-11.13-14.08-22-21.17-33.14-.54.51-1,.87-1.35,1.28q-27.78,30.81-55.53,61.64a4.28,4.28,0,0,0-1,2.63c-.11,3.95-.05,7.89-.05,12H972.35v-7.55l21.42,10.47Z" transform="translate(-735.28 -357.19)"/></svg>