<svg id="Layer_1" data-name="Layer 1" xmlns="http://www.w3.org/2000/svg" viewBox="0 0 776.04 776.13"><defs><style>.cls-1{fill:#fff;}</style></defs><path class="cls-1" d="M764.84,858c-90.14-7.49-167.9-42.42-231.71-106.22S434.63,610.43,427,520.32c-15.11-3.16-24.34-11.75-24-28.08.27-12.15,7.94-19.8,24-24.59,7.45-89.82,42.34-167.6,106.12-231.42S674.73,137.53,764.56,130c5.65-17.51,13.69-24.48,27.56-24.07,12.59.37,20.8,8.14,25.13,24,89.77,7.47,167.61,42.26,231.43,106S1147.46,377.58,1155,467.86c1.5.36,2.93.69,4.34,1A25.57,25.57,0,0,1,1179.06,494c0,12.06-7.89,22.41-19.73,25-3.92.85-4.86,2.62-5.17,6.26-5.84,68.58-29.07,130.88-70.31,185.82-56,74.55-130.08,121.48-221.46,140.57-13.32,2.78-27,3.89-40.54,5.59-3,.38-5,.85-5.75,4.52-2.7,12.39-12.73,20.3-25,20.33-12.49,0-22.35-7.95-25.39-20.59C765.45,860.37,765.16,859.27,764.84,858Zm26-244.92c65,.92,119-53,119.34-118.3.35-66.29-53.53-119-116.16-119.8-69.54-.92-121.72,54.51-122.17,118.45C671.37,559.12,725.62,613.85,790.82,613.07Zm26.3,192.61c154.48-12.07,274.75-138,285.46-285.44h-44.67c-7.29,63.19-32.48,118.15-77.56,163.18s-100,70.27-163.23,77.5Zm-293-337.84c7.21-63.57,32.53-118.36,77.69-163.48s100-70.15,162.88-77.3V182.27c-163.82,13.67-276.85,148.84-285,285.57Zm-44.62,52.39C483.54,586,515,666.83,580.84,726c52.29,47,113.71,73.41,184,80V761c-63.34-7.15-118.15-32.39-163.29-77.47s-70.32-100-77.54-163.25Zm623.27-52.38C1089.44,305.71,954.86,191,817.19,182.63v44.44c63.48,7.24,118.31,32.46,163.4,77.64s70.23,100,77.36,163.14ZM817.15,708.42c105.76-12.18,179.92-100.08,187.94-188.18H960.37c-5.89,37-22.09,68.67-48.28,94.84s-58,42.53-94.94,48.33Zm-52.3-428.84c-108.31,12.51-181,103.59-187.77,188.12h44.44c6.35-37,22.18-68.72,48.52-95s58.22-41.87,94.81-48.16Zm52.35,44.95C892.62,337.64,948,393,960.57,468.07h44.7C994.79,369.21,913,289.65,817.2,279.81ZM764.87,664.47q-118.67-25.85-144-144.11H576.58C589.11,627.56,678.67,700.65,764.87,708Z" transform="translate(-403.03 -105.93)"/><path class="cls-1" d="M842.8,494c0,28.23-23.72,51.9-51.94,51.79s-51.48-23.41-51.66-51.56,23.34-51.94,51.67-52S842.77,465.69,842.8,494Z" transform="translate(-403.03 -105.93)"/></svg>