<svg id="Layer_1" data-name="Layer 1" xmlns="http://www.w3.org/2000/svg" viewBox="0 0 676.09 696.84"><defs><style>.cls-1{fill:#fff;}</style></defs><path class="cls-1" d="M1118.91,682.76c-15.63,1.21-30.53,2.84-45.46,3.3-6.76.21-12.54,2.12-18.53,4.66-27.75,11.75-56.41,20-86.64,22.21-1.72.13-3.36,1.26-5,1.87-7,2.49-13.9,5.55-21.09,7.29-9.88,2.4-18.15-1.62-24.34-9.21C907.44,700.2,903,685.54,905,669.17c.84-7.07,2-14.11,3-21.16l-1.16-1.16c-10,7.28-20.14,14.47-30,22-1.13.86-1.36,3.51-1.26,5.29,1.07,19.33,1.56,38.68-2.62,57.7-1.37,6.23-3.39,13-7.2,17.88-12.14,15.57-16.54,33.87-20.66,52.43-.47,2.11-.82,4.26-1.43,6.33-2.54,8.7-3.39,16.91.43,26,2.55,6.06,2.14,13.65,1.89,20.51-.19,5.33-4.1,8.62-9.64,9.08-25,2.09-50.07,4.44-75.15,6-10.07.63-20.29,0-30.36-1-7.92-.74-10.81-6.67-7.24-13.71,3.35-6.6,8.6-10.92,15.8-13.62,11.78-4.42,23.56-9.15,34.63-15.09,5.75-3.08,9.45-9.81,15-13.5,8.29-5.52,8.37-14.37,10.64-22.26A167.88,167.88,0,0,0,804.88,766c4.47-35.34,8.57-70.72,12.82-106.08,1.06-8.88,1.48-17.91,3.39-26.61,2.32-10.58,8.66-19.15,15.4-27.61,11.59-14.57,25.17-26.89,39-39.28,10.44-9.38,18.32-21.56,28-31.8,8.36-8.79,17.79-16.54,26.63-24.87,4.93-4.64,9.63-9.52,14.88-14.75-5.65-2.81-5.63-7.34-6-11.59-1.39-18.43,1.86-36.21,8.35-53.36,8.48-22.41,17.49-44.61,26-67a175.25,175.25,0,0,0,5.76-20.12,83.58,83.58,0,0,1,16.25-33.31,13.14,13.14,0,0,1-2.27-.6c-5.78-2.9-10.45-1.41-14.91,3-3.43,3.42-7.77,2.64-11.61.48-10.39-5.83-16.33-15.44-21-25.91-.66-1.48.43-4.27,1.54-5.87,1.69-2.42,4.08-4.35,6.23-6.44,1.08-1,2.67-1.73,3.36-2.95,3.63-6.44-2.29-11.32-3.24-17.05-.16-1-3.26-2.15-5-2.14-9.15,0-10-.62-10-9.74,0-19.14,4.07-37.25,19-50.24,18.82-16.31,41.15-23,65.54-15.95,22.51,6.48,32.77,24.3,36.76,46.17a152.4,152.4,0,0,1,2,21.36c.08,2.14-1.09,5.27-2.73,6.34-3.69,2.4-3.71,4.89-2,8.25.82,1.62,1.43,3.34,2.26,5.33,10.36-3.3,20.79-4.67,31.48-2.64,12.22,2.33,23.28,6.85,31.6,16.6,4.4,5.15,6.83,11.15,6.46,17.88a164.8,164.8,0,0,1-2.35,22.31c-1.53,7.95.5,13.34,7.16,18.33s12.5,11.47,18.21,17.73c4.71,5.16,10.28,8.68,16.94,9.85,7.46,1.31,12.42,5.41,15.79,11.73,6.21,11.64,10.24,23.93,8.56,37.32-1.11,8.85-7.08,13.2-15.62,10.52-6-1.87-11.51-5.64-16.63-9.39-3.9-2.85-7.33-5.64-12.36-6.75-14.33-3.17-23.39-13.27-30.91-25.11a78.18,78.18,0,0,0-5-6.22c-3.4,11.65-6.43,22-9.43,32.36-5,17.18-12.84,32.78-24.54,46.43-1.58,1.85-2,4.77-2.7,7.28-3.46,13.36-6.54,26.82-10.33,40.08-2.28,8-4.26,9.78-8.48,11.35-.57,11-.62,21.81-1.82,32.5-1.82,16.33-11.85,27.75-24,37.76a30.08,30.08,0,0,0-6.82,8.19c-9.14,16-18,32.23-27,48.37-.38.69-.68,1.44-1,2h15c24.48,0,49,.07,73.45-.14,2,0,4.54-1.56,6-3.16,3.47-3.8,6.19-8.28,9.66-12.09,9-9.82,18.63-11,29.91-4.1s22.35,13.86,33.61,20.64a27.77,27.77,0,0,0,8.24,3.48c18.66,3.9,28.93,17.53,37.41,32.75,4.62,8.3-.16,15.73-9.66,15.67-4.68,0-9.41-1.65-14-2.91-9.92-2.72-19.68-6.08-29.68-8.4-9.61-2.23-19.27-.92-28.53,2.34C1123.32,687.9,1120.21,687.11,1118.91,682.76Zm-72.08-156.3c0-2.83.1-5.66,0-8.49-.33-8-.36-8-7.92-9.66-2.12-.45-4.23-1-6.37-1.23-25.28-3.06-50.56-6.11-75.86-9-1.36-.15-3.24,1.06-4.3,2.19-4.68,4.95-8.53,10.86-13.78,15-20.24,16.1-37.27,35.18-53.42,55.17a63.3,63.3,0,0,1-5.61,5.62Q865.19,590,850.79,603.75c-2.24,2.14-2.59,4.18-.67,6.91,4.7,6.67,8.72,13.84,13.78,20.21a174.63,174.63,0,0,0,16.44,17.33c1.17,1.12,4.6,1.41,6,.52,22.46-14,44.67-28.41,67.14-42.38,8.59-5.34,17.67-9.9,26.61-14.65,2.91-1.54,6.13-1.64,7.64,1.91,1.58,3.74-.74,5.78-4.06,7.21-4.28,1.84-8.69,3.55-12.59,6q-25.32,16-50.28,32.59c-1.53,1-2.19,3.89-2.56,6-1.18,6.89-2,13.83-3,20.75-1,6.49-.61,7.23,6.06,8.72,11.75,2.61,23.52,1.5,35.23-.34,1.57-.25,3.19-1.69,4.31-3a368.91,368.91,0,0,0,56.73-87.79c1-2.27,3.14-4.14,5-5.95,5-4.88,10.53-9.24,15.06-14.49C1046.75,552.74,1046.9,539.54,1046.83,526.46Zm-98.7-284.21c10.64-.65,20.44-1.08,30.21-1.95,4.13-.37,6.77.92,8.29,4.66,1.37,3.38,2.68,6.78,4,10.17,3.26,8.28,7.54,10.62,16.29,9.32,13-1.92,24.16-7.91,35.4-14.21,7.57-4.24,11.71-9.06,8.93-18.1-1-3.13-.8-6.59-1.32-9.87-3.15-20-17.37-35.67-35.05-38.15S981,186.23,967,196.87C952.41,207.92,948.38,224,948.13,242.25Zm207.44,127.68-.8.82a74.32,74.32,0,0,0,5.53,6.2c2.55,2.3,4,4.75,1.5,7.68-2.78,3.23-6.12,2-8.18-.62-4.3-5.42-8.13-11.23-11.91-17.05-.81-1.25-1.26-3.53-.68-4.77,2.07-4.38-.63-6.71-3.24-9.26-1.91-1.85-3.56-4.07-5.72-5.56-7.7-5.35-13.69-11.56-17.06-20.85-2.81-7.74-9.74-12.37-18.42-12.23-9,.13-15.21,5.22-19.49,12.77-.75,1.32-1.41,3.57-.79,4.62,4.27,7.35,6.7,15.94,15,20.5s16.16,9.9,24.35,14.65a29.27,29.27,0,0,1,11.14,10.92c5.48,9.41,12.81,17.57,23.9,19.78,6.86,1.36,11.78,4.62,16.67,9a39.83,39.83,0,0,0,10.28,6.82c4.52,2,6.31.69,6.23-4.22a56.39,56.39,0,0,0-9.88-31.9,7.37,7.37,0,0,0-3.33-2.85C1165.72,372.74,1160.63,371.4,1155.57,369.93ZM1127.47,675c8.13-.58,15.56-1.63,23-1.53,14,.19,27,4.94,40,9.92,3.37,1.3,7,1.81,10.59,2.68l1.18-1.86c-4-5.19-7.4-11-12.06-15.43a71.64,71.64,0,0,0-16-11.36c-7-3.71-14.88-5.74-21.79-9.56-9.44-5.22-18.29-11.51-27.46-17.23-6.51-4-10.69-3.62-16,1.92-3.17,3.33-5.84,7.14-8.86,10.88C1111.44,652.57,1122.08,661.86,1127.47,675ZM732.26,857.67l1,2a26.87,26.87,0,0,0,3.32.41c10.14.06,20.31.64,30.4,0,21.75-1.39,43.46-3.44,65.19-5.14,3.69-.29,5.57-1.92,5-5.7-.9-5.67-1.94-11.33-3-17.68-7.55,4.05-14.67,5.49-21.59,2.56-6.58-2.79-12.66-6.78-19.47-10.53a51.6,51.6,0,0,1-4.26,4.55c-13.35,11.66-29.5,17.7-46,23.08C738.94,852.42,735.74,855.46,732.26,857.67Zm80.51-77c-3.17,11.12-6.5,22.57-9.62,34.09-.31,1.11.29,3.3,1.14,3.76,4.73,2.61,9.48,5.51,14.61,7s11.35-2.19,12.24-6c2.65-11.31,5.16-22.65,7.56-33.25ZM1061.26,652c1.69,8,3,15.09,4.83,22.05.29,1.09,2.74,2.31,4.18,2.3,7.29,0,14.6-.22,21.87-.86s14.64-1.87,22.79-3c-5.58-8.67-12.46-14.52-19.66-20.06a2.38,2.38,0,0,0-1.39-.45C1083.47,652,1073.05,652,1061.26,652Zm-79.88-392.3c-8.24,9.41-16.08,18.38-24.76,28.31,3,3.65,7.31,9.09,12,14.1,1,1.07,4.6,1.52,5.42.69,8.76-8.92,17.2-18.15,26.17-27.78C989.57,271.66,988.86,271.08,981.38,259.73ZM967.92,401.58c7,.62,11.88-1.7,14.28-7.77,3.09-7.86,5.51-16,8.15-24,.68-2.09,1.1-4.27,1.66-6.45l-8.49-2.15C978.2,375,973.08,388.22,967.92,401.58Zm44-111.13c6.07-4.93,11.45-10,17.5-14s12.92-7.23,19.83-11l-2-5.29c-10.55,4.22-20.55,8.71-30.9,12.13-4.62,1.53-6.66,4.94-8.6,8.3-.78,1.36,1.44,4.51,2.4,6.8A29.92,29.92,0,0,0,1011.93,290.45Zm-9.1,35.16c-3.69,1.89-7.45,2.55-8.46,4.59a47.79,47.79,0,0,0-4.49,15.16c-.2,1.62,3.45,5.19,5.39,5.23,2.47.05,7.39,1.33,7.52-4C1003,340.16,1002.83,333.69,1002.83,325.61Zm-36.22-63.72,11-11.56-14.42.91C964.32,254.81,965.31,257.88,966.61,261.89Zm33.71,27.65-8.09,9.67,12.69.64C1003.15,295.88,1001.92,293.14,1000.32,289.54Z" transform="translate(-535.57 -173.41)"/><path class="cls-1" d="M596.87,547.83a62.8,62.8,0,0,1,40,14.33c6.41,5.14,8.15,11.33,6.87,19-3.68,22-15.61,37.66-36.42,45.67-23.52,9.05-45.7,5.6-66.13-9.16-3.26-2.36-5.8-5.11-5.63-9.4.87-22.28,8.77-40.87,28.59-52.78C572.78,550.29,585,547.82,596.87,547.83Zm-.66,9.8c-10.68,0-21,2-29.91,8-14.12,9.53-19.27,24-20.9,40.15-.14,1.44,1.47,3.58,2.86,4.59,13.61,9.88,28.82,13.35,45.33,10.3,21.47-4,36.3-18.69,40.11-39.18,1-5.3.24-9.38-4.53-13A53,53,0,0,0,596.21,557.63Z" transform="translate(-535.57 -173.41)"/></svg>