<svg id="Layer_1" data-name="Layer 1" xmlns="http://www.w3.org/2000/svg" viewBox="0 0 827.75 791.01"><defs><style>.cls-1{fill:#ef3f58;}</style></defs><path class="cls-1" d="M180.11,791v-6.08q0-182,.12-364c0-4.85-1.62-6.68-5.91-8.39q-74.92-29.75-149.66-60c-6.61-2.67-12.9-6.17-19.22-9.5-1.87-1-3.35-2.68-5.44-4.4,1.74-2.87,3.42-5.67,5.13-8.44,22.77-37,40.31-76.57,58.6-115.77,19-40.73,37.71-81.6,55.74-122.76,5.31-12.11,13.41-20,24.81-25.66,52-25.87,105.82-47,161-65.06.63-.21,1.29-.33,1.87-.48,2.53,5.63,4.62,11.41,7.58,16.72,12.24,21.9,31.75,34.52,55,41.85,33.14,10.41,66.11,9.46,98.28-3.61C492.87,45.3,511.49,28.56,519.64,2a19.41,19.41,0,0,1,1-2c12.18,4.22,24.44,8.28,36.58,12.69C600.73,28.49,643.72,45.57,685,66.76a122,122,0,0,1,13.94,8.75,11.64,11.64,0,0,1,3.49,4.66c14.25,30.81,28.15,61.8,42.66,92.48q32.57,68.83,65.9,137.29c4.78,9.82,11,18.93,16.8,28.7-7,6.8-15.91,10.29-24.54,13.82-43.9,18-88,35.49-132,53.17-6,2.41-12,5-18.11,7-4.08,1.33-5.43,3.29-5.42,7.75q.26,134.49.12,269V791Z" transform="translate(0 0.04)"/></svg>