<svg id="Layer_1" data-name="Layer 1" xmlns="http://www.w3.org/2000/svg" viewBox="0 0 641.39 628.26"><defs><style>.cls-1{fill:#fff;}</style></defs><path class="cls-1" d="M947.7,307.68l-32.06-27.19,105.91-39.73c-6.11,37.47-12.08,74.15-18.2,111.7l-33.18-27.23c-5.23,6.66-10.39,13.12-15.42,19.67-38.35,49.94-77.26,99.45-114.77,150-22.09,29.76-43.3,60.33-58.51,94.52-3.71,8.34-2.68,15.36,2.08,22.52,12,18,27.62,32.29,44.06,46a416.51,416.51,0,0,0,58,40.71c7.79,4.52,10.38,14.16,6.21,20.34-4.95,7.32-13,9.09-21.47,3.94-26.66-16.23-52.63-33.42-74.68-55.77-10.16-10.3-20.69-20.43-29.43-31.87-14.66-19.19-18.26-40.65-6.73-62.76,9.22-17.67,18.64-35.39,29.65-52,44.26-66.66,93.69-129.54,142.58-192.79C936.9,321.11,942.24,314.55,947.7,307.68Z" transform="translate(-530.51 -240.76)"/><path class="cls-1" d="M997.85,869c-41.62,1.06-87.59-33.44-86.46-89.87.89-43.93,36.8-83.59,87-83.9,48.28-.3,87,39.3,86.78,88.27C1085,830.69,1045.89,869,997.85,869Zm-.06-141.42c-30.6.55-54.37,24.87-53.94,55.21.44,30.54,24.92,54.52,55.14,54,30.76-.52,54.58-24.82,54-55.07C1052.41,751.21,1027.78,727.05,997.79,727.58Z" transform="translate(-530.51 -240.76)"/><path class="cls-1" d="M621.19,443.75,587.1,409.44c-11.34,11.53-22.64,23-33.17,33.69l-23.35-21.52c11.87-11.79,23.29-23.15,35.44-35.21l-35.51-34c7.86-8,15-15.22,22.55-22.92l35.67,34.68,33.37-33.56,23.66,21.24-36.21,35.92L644.8,420Z" transform="translate(-530.51 -240.76)"/><path class="cls-1" d="M1092.66,386.35l-35.06-34.28,22.25-22.59,34.08,34.57,33.72-33.81,24.25,21.58-35.78,35.52c12,11.91,23.37,23.27,34.51,34.38L1149.57,443l-35.72-34-33.76,34.47L1058.3,420.7Z" transform="translate(-530.51 -240.76)"/><path class="cls-1" d="M1001.93,497.77l22.45,21.87-34.67,34.6,34.62,34.53-21.79,22.32-33.61-34.51-34.39,34.6-24.12-22.24,35.43-35.18L912,519.91l20.46-22,34.84,34.35Z" transform="translate(-530.51 -240.76)"/><path class="cls-1" d="M784.47,330.1,807.76,353l-34.42,34.39,34,33.78c-7.71,7.74-14.94,15-22.59,22.71L750.9,409.73,717,444l-22.17-22.58,33.91-33.28-35.24-34.91,23-22.66,33.69,34.09Z" transform="translate(-530.51 -240.76)"/></svg>