<svg id="Layer_1" data-name="Layer 1" xmlns="http://www.w3.org/2000/svg" viewBox="0 0 744.84 477.68"><defs><style>.cls-1{fill:#fff;}</style></defs><path class="cls-1" d="M633.42,394.42v105H404.29v-105Z" transform="translate(-332.54 -270.12)"/><path class="cls-1" d="M652.43,394.2H881.61V499.38H652.43Z" transform="translate(-332.54 -270.12)"/><path class="cls-1" d="M757.44,623.79H528.37V518.61H757.44Z" transform="translate(-332.54 -270.12)"/><path class="cls-1" d="M776.66,623.65V518.53h229.13V623.65Z" transform="translate(-332.54 -270.12)"/><path class="cls-1" d="M528.42,270.22H757.59V375.08H528.42Z" transform="translate(-332.54 -270.12)"/><path class="cls-1" d="M1005.85,270.32V375.17H776.64V270.32Z" transform="translate(-332.54 -270.12)"/><path class="cls-1" d="M404.25,642.8h229.1V747.69H404.25Z" transform="translate(-332.54 -270.12)"/><path class="cls-1" d="M881.83,642.8V747.64H652.47V642.8Z" transform="translate(-332.54 -270.12)"/><path class="cls-1" d="M1077.23,499.53H901.05V394.38h176.18Z" transform="translate(-332.54 -270.12)"/><path class="cls-1" d="M332.55,623.67V518.6H509.1V623.67Z" transform="translate(-332.54 -270.12)"/><path class="cls-1" d="M332.62,375.15V270.21H509V375.15Z" transform="translate(-332.54 -270.12)"/><path class="cls-1" d="M1077.38,642.84v105H901.05v-105Z" transform="translate(-332.54 -270.12)"/><path class="cls-1" d="M332.54,499.4v-105h52.2v105Z" transform="translate(-332.54 -270.12)"/><path class="cls-1" d="M1025.06,623.58v-105h52.25v105Z" transform="translate(-332.54 -270.12)"/><path class="cls-1" d="M1025.32,270.12h52V375.19h-52Z" transform="translate(-332.54 -270.12)"/><path class="cls-1" d="M332.71,642.83h52.14V747.7H332.71Z" transform="translate(-332.54 -270.12)"/></svg>