<svg id="Layer_1" data-name="Layer 1" xmlns="http://www.w3.org/2000/svg" viewBox="0 0 786.62 546.57"><defs><style>.cls-1{fill:#fff;}</style></defs><path class="cls-1" d="M520,755.16c-1.66,9.68-3.35,19.16-4.89,28.67-2.48,15.2-11.91,23.31-27.53,23.32q-68,.06-136,0c-12.14,0-21.88-6.35-25.49-16.46-3.69-10.31,0-21.38,9.7-29.17,23.15-18.54,46.36-37,69.38-55.68a12.25,12.25,0,0,0,4.17-7.24c4.05-32.89,7.81-65.82,11.64-98.74,1-8.93,1.89-17.89,3.14-26.8,1.92-13.69,12.31-22.55,26.2-22.57q26.5,0,53,0c17.87,0,28.46,10.76,28.49,28.73,0,16.16,0,32.31,0,49.27a17.74,17.74,0,0,0,2.4-2.2,69.51,69.51,0,0,1,26.37-23.16c3.25-1.64,4.34-3.61,4.33-7.3-.14-52.83.1-105.65-.23-158.48-.09-14.55,9.4-24,18.58-26.53a32.59,32.59,0,0,1,8.37-1c11.33-.11,22.67,0,34-.06,1.62,0,3.24-.14,5.1-.23v-48.2c-2.75-1-5.82-2.1-8.85-3.27C611,353.92,604.54,342.9,606,331c1.21-9.91,10.49-18.92,21.21-20.35a16.4,16.4,0,0,1,6.39.44c11,3.1,22.39,5.5,32.92,9.87,9.85,4.09,14.33,13,14.32,23.8q0,29.49,0,59v5.78h33c0-2.4-.06-5,0-7.56.4-14.07,11.06-25.34,24.24-25.68,12.89-.33,24,10.32,25.22,24.17.25,2.95.29,5.93.44,9.15h13q5.57-25.05,11.15-50.12,8.6-38.76,17.18-77.51c3.07-13.82,12.12-21.09,26.25-21.09,67.16,0,134.33.3,201.48-.23,16-.13,28.93,11.39,28.87,28.94-.37,101.65-.16,203.31-.27,305,0,4.51,1.22,7,5.36,9.28,23.43,13,36.28,33.77,41.4,59.46,5.63,28.29,4.39,56.1-9.35,82.21-14.16,26.9-37.22,40.91-67,44.5a141.23,141.23,0,0,1-17,.83q-203,.06-406,0c-21.37,0-41.39-4.72-58.57-18a70.67,70.67,0,0,1-14-14.13c-3.2-4.44-6.49-5.52-11.28-4.35C523.66,754.7,522.15,754.83,520,755.16Zm46.34-115.47c2,0,3.12,0,4.23,0l197.88-5.81c29.62-.87,23-3.27,49.08,13.86a13.29,13.29,0,0,0,6.85,2.17q66,.18,132,0a11.3,11.3,0,0,0,5.91-1.89c19.35-13.06,39.8-14.4,60-3.49,20.69,11.16,31.59,29.2,30.7,53.2-.81,22-11.63,38.33-30.79,48.62-19.71,10.59-39.31,9.28-58.33-2.57a17.5,17.5,0,0,0-8.69-2.67c-45.83-.17-91.67-.71-137.48.17-18.35.35-35-1.65-49.28-14.16a7.81,7.81,0,0,0-5.45-1.42q-44.18,5.07-88.31,10.5a12.5,12.5,0,0,0-6,3.07c-18.3,15.43-42.7,18.36-64.05,7.63-1.44-.72-3.13-1.58-4.62-1.44-8.52.8-17,1.88-27.1,3.06,3.75,2,6.11,3.4,8.63,4.49,8.91,3.86,18.35,4.48,27.9,4.48q204,0,408,0a103,103,0,0,0,11-.44c20.19-2.19,34.91-12.23,43.23-30.93,6.56-14.72,7.21-30.3,5.87-46.08-1-12.16-4.27-23.65-11.46-33.63-11.54-16-28-21.45-47.07-21.44q-205.72.1-411.46,0c-2.17,0-4.34-.06-6.5.12C588.32,626.21,576.5,629.54,566.35,639.69ZM884.67,352Q867.33,442.92,850,533.68H953.71V352Zm119.55,33.19V500.75h24V385.23Z" transform="translate(-324.71 -260.6)"/></svg>