<svg id="Layer_1" data-name="Layer 1" xmlns="http://www.w3.org/2000/svg" viewBox="0 0 768.28 498.85"><defs><style>.cls-1{fill:#fff;}</style></defs><path class="cls-1" d="M1035.07,799.48c-39.3,1.26-76.48-7.39-113.16-21.08-36.49-13.62-67.2-34.36-91.06-64.91-9.19-11.77-16.3-25.16-25.23-37.15-18.28-24.56-38.35-47.62-64.61-64-15.93-10-33.11-17.91-49.23-27.59-21-12.59-42-25.23-62-39.26-25.2-17.66-36-42.91-31.84-73.38,3.88-28.46,19.73-49,45.79-61.19,6.27-2.92,11-6.44,14.8-12.34,17.25-26.8,37.91-50.69,63.26-70.18,17.82-13.69,37.34-23.82,60.21-25.92a81.47,81.47,0,0,1,36.75,5.37c4.28,1.63,4.7,5.09,4,9.07a72,72,0,0,0,6.2,44.72c14.69,30.29,52.51,47.46,84.72,37.75,10.31-3.1,20.15-7.8,30.08-12.05,7.61-3.25,9.41-2.71,12.38,5,25,64.61,50.18,129.12,74.67,193.91,7.94,21,21.58,36.71,40.13,48.12,10,6.13,21.22,10.25,32.11,14.75,19.22,7.94,38.86,14.9,57.79,23.46,7.19,3.25,13.4,9.26,19.16,14.92,11.83,11.64,10.81,24.92,4.11,39-18,37.82-47.53,60.86-88.49,68.17-19.91,3.55-40.32,4.32-60.51,6.35Zm-50.8-301.91c-1.82.82-2.89,1.28-3.93,1.77l-31.17,14.71c-3.58,1.69-7.12,1.84-9-2.18-1.77-3.85.27-6.71,3.87-8.49,1.35-.66,2.71-1.28,4.07-1.92l31.85-15c-4.8-12.38-9.49-24.45-14.24-36.71l-14.17,6c-7.06,3-14.08,6.05-21.2,8.86-3.38,1.33-6.39.38-7.83-3.19-1.37-3.38.29-5.81,3.23-7.42a52.45,52.45,0,0,1,5-2.23c10.08-4.3,20.17-8.58,30.69-13.05-5.15-13.23-10.17-26.12-15.35-39.44-31.77,16.57-63.45,21.41-94.92,2.45s-44.17-48-41.06-84c-23.44-8.79-53.24-.49-73.35,15.05,2.45,3.16,5,6.25,7.33,9.48,30.63,42.07,32.11,88.06,3.78,131.84-6.47,10-14.19,19.21-21.89,29.51,9,6.18,18.27,12.61,27.6,19A419.07,419.07,0,0,1,874.06,647a12.7,12.7,0,0,0,8.87,6.17c13.83,3,27.54,6.5,41.37,9.46,5.15,1.1,10.59,2,15.79,1.62,14.44-1.13,25.65-8.34,34.31-19.87,3.48-4.62,6.89-9.54,11.26-13.21,8.78-7.35,19.7-9.4,30.81-10,6.49-.37,13-.07,20.2-.07-17.78-23.25-22.33-51.3-34.65-76-11,4.87-21.76,9.68-32.58,14.41-3.29,1.43-6.51,1-8.16-2.39s-.52-6.49,3.21-8.18c2-.89,3.94-1.79,5.92-2.67l27.85-12.45Zm-332-77.65c-24.08,9.56-38.68,27.74-42.62,53.53C606,497.89,614.1,519,634,533.83c16.76,12.51,34.71,23.54,52.69,34.3,19.56,11.7,40.15,21.71,59.61,33.59,27.28,16.66,48.32,40.2,67.34,65.46,9.5,12.61,17.23,26.55,26.72,39.17a163.48,163.48,0,0,0,61.25,50.26c39.48,18.67,80.66,31.74,124.91,31.13,21.43-.29,43-1.3,64.21-4.11,24.9-3.31,46.77-14.3,63.73-33.37,6.15-6.91,11.11-14.88,16.61-22.37l-1.25-1c-1,.22-1.92.38-2.85.64-39.08,11.09-78.71,18.52-119.5,18.67-44.63.17-87.15-7.94-125.56-31.93-20.14-12.58-37.77-27.93-50-48.64C839,610,795.89,564.14,741.56,529.16a207,207,0,0,1-62.86-63.3C669.3,451.19,661.27,435.64,652.3,419.92ZM886.76,666.17c1.27,1.83,1.93,3,2.76,4a154.33,154.33,0,0,0,36.87,32.64c32.42,20.4,68.22,29.4,106.1,31.16,47.67,2.2,93.78-6.55,139.19-20.09,5.86-1.75,6.87-3.4,5.21-9.29a19.08,19.08,0,0,0-2.6-5.35,45,45,0,0,0-19.94-16.9c-19.36-8-38.83-15.84-58.52-23-15.33-5.59-29.61-12.77-42.49-22.78a10.34,10.34,0,0,0-5.33-2.33c-10.62-.57-21.28-1.44-31.88-1-13,.48-23.75,4.84-31.42,16.87-13.56,21.26-37.5,30-62.21,24.28C910.88,671.59,899.24,669,886.76,666.17ZM726.51,339.69c-24.63,20.23-44.76,44-61.48,70.76-.88,1.39-.56,4.13.16,5.84a255.5,255.5,0,0,0,41,66.45c3.4,4,7.09,7.72,10.64,11.56C768.44,442,766.5,384.34,726.51,339.69Z" transform="translate(-420.79 -302.15)"/><path class="cls-1" d="M649.46,756.24H532c-7,0-9.81-1.57-10-5.63-.15-4.21,2.95-6.11,10.08-6.11H768c6.9,0,9.75,1.67,9.93,5.72.18,4.25-2.76,6-10.05,6Z" transform="translate(-420.79 -302.15)"/><path class="cls-1" d="M628.27,668.85q38,0,75.9,0c1.66,0,3.75-.42,4.88.4,1.8,1.33,3.91,3.43,4.11,5.39.17,1.65-1.91,3.92-3.54,5.23-1.1.88-3.16.76-4.79.76q-76.91.06-153.81,0c-1.62,0-3.69.1-4.78-.79-1.63-1.33-3.69-3.65-3.49-5.29.23-2,2.4-4,4.24-5.32,1.14-.81,3.22-.38,4.88-.38Q590.08,668.83,628.27,668.85Z" transform="translate(-420.79 -302.15)"/><path class="cls-1" d="M500,605.38q-21,0-41.93,0c-1.65,0-3.8.42-4.86-.43-1.84-1.47-4.06-3.73-4.15-5.75-.08-1.69,2.39-4,4.25-5.12,1.35-.84,3.56-.39,5.39-.39h81.86c.66,0,1.33,0,2,0,5.47.11,8.27,2.11,8.22,5.9s-2.82,5.77-8.35,5.79C528.31,605.41,514.17,605.38,500,605.38Z" transform="translate(-420.79 -302.15)"/><path class="cls-1" d="M463.52,517.93c11.48,0,23,0,34.46,0,5.53,0,8.15,2,8,5.94s-2.91,5.9-8.28,5.9q-34.47,0-68.93,0c-5.33,0-8.11-2.19-8-6.11s2.67-5.73,8.26-5.74C440.54,517.91,452,517.93,463.52,517.93Z" transform="translate(-420.79 -302.15)"/><path class="cls-1" d="M482.87,668.85c7.14,0,14.28.08,21.42,0,4-.06,7.16,1.39,7.37,5.6s-2.8,6.18-6.82,6.19q-21.91.09-43.84,0c-3.79,0-6.69-1.89-6.62-5.88.07-4.17,2.93-5.94,7.07-5.89C468.59,668.91,475.73,668.85,482.87,668.85Z" transform="translate(-420.79 -302.15)"/><path class="cls-1" d="M458.48,756.23c-6.49,0-13-.06-19.47,0-4.12.06-7.38-1.06-7.87-5.69-.39-3.61,2.58-6,7.55-6q19.71-.15,39.42,0c5,0,8,2.36,7.64,6-.45,4.58-3.63,5.84-7.81,5.77C471.45,756.16,465,756.23,458.48,756.23Z" transform="translate(-420.79 -302.15)"/><path class="cls-1" d="M609,605.37H591c-3.94,0-7.12-1.3-7.16-5.78s3-5.91,7-5.91h36.42c4,0,7,1.59,6.93,6-.07,4.13-3,5.66-6.77,5.68C621.29,605.4,615.14,605.37,609,605.37Z" transform="translate(-420.79 -302.15)"/><path class="cls-1" d="M546.39,517.93c5.33,0,10.66.05,16,0,4.08,0,7.13,1.6,7.19,5.84s-3.09,6-7.07,6c-10.83.05-21.66.07-32.48,0-3.95,0-7.07-1.8-6.92-6.16s3.29-5.72,7.3-5.67C535.73,518,541.06,517.93,546.39,517.93Z" transform="translate(-420.79 -302.15)"/></svg>