<svg id="Layer_1" data-name="Layer 1" xmlns="http://www.w3.org/2000/svg" viewBox="0 0 558.76 542.83"><defs><style>.cls-1{fill:#fff;}</style></defs><path class="cls-1" d="M571.49,696.44V389.56c-3.23,0-6.15.06-9.07,0-6.3-.16-9.82-3.68-9.84-10q-.08-25.93,0-51.87c0-7.12,3.39-10.47,10.7-10.5,19.22-.06,38.43,0,57.64,0h5.39V293.86c0-1.77,0-3.54,0-5.32,0-8.94,3-11.82,12-11.9,1.31,0,2.61-.11,4.35-.18.09-1.73.22-3.3.22-4.87,0-11.68,0-23.35,0-35,0-6.92,3.46-10.36,10.38-10.37q40.11,0,80.24,0c7.2,0,10.6,3.4,10.62,10.6,0,11.67,0,23.35,0,35,0,1.44.13,2.87.22,4.82,2.31,0,4.33,0,6.36,0,6.5.14,9.9,3.62,10,10.39.08,9,0,18,0,27.05a22.45,22.45,0,0,0,.37,2.79H903.08V293.34c0-2.36-.06-4.73,0-7.09.31-6.17,3.68-9.44,9.84-9.6,2-.06,4.07,0,6.7,0V271.5c0-11.53,0-23.06,0-34.58,0-7.26,3.4-10.73,10.48-10.74q40.13,0,80.25,0c7.11,0,10.5,3.49,10.52,10.68,0,13,0,26,0,39.76h5.34c8,.05,11.21,3.29,11.25,11.39,0,8.42,0,16.85,0,25.27,0,1,.11,2,.2,3.6,1.78.08,3.48.23,5.17.23q27.72,0,55.42,0c10.43,0,13,2.58,13,13.17q0,23.94,0,47.88c0,8.16-3.11,11.31-11.16,11.38-2.48,0-4.95,0-7.76,0V696.44c2.75,0,5.49,0,8.22,0,7.14.14,10.68,3.6,10.69,10.62q.06,25.71,0,51.43c0,7.07-3.52,10.49-10.72,10.49H563.71c-8,0-11.14-3.23-11.15-11.38q0-25.05,0-50.1c0-7.65,3.35-11,11.11-11.06C566.17,696.42,568.67,696.44,571.49,696.44Zm501.65-.25V389.9H590.45V696.19ZM1019,295.43H921.9v21.7h45.44a34.8,34.8,0,0,1,3.54.07c5.25.51,8.75,4.39,8.6,9.45-.14,4.84-3.72,8.45-8.78,8.81-1,.08-2.06,0-3.1,0H754.78c-1,0-2.07,0-3.11,0-5.88-.24-9.27-3.57-9.38-9.52-.12-7.24,0-14.49,0-21.73v-8.75H645v21.66h4.87c13.89,0,27.79-.07,41.68,0,7.1,0,11.38,5,10,11.4-1,4.61-4.59,6.93-10.88,6.94H571.38v35.24h521.17V335.5h-61.3c-9.52,0-12.25-2.8-12.25-12.49C1019,313.89,1019,304.77,1019,295.43Zm73.55,419.86H571.3v35h521.25ZM725.35,245H661.67v31.39h63.68Zm276.79,0H938.47v31.38h63.67Z" transform="translate(-552.54 -226.17)"/><path class="cls-1" d="M794.31,576.55h-49.8c-5.9,0-9.16-1.88-10.67-6.08s-.21-7.73,4.32-11.52q84.8-71,169.6-141.89c4.63-3.87,9.49-4.17,13.24-.92s4.21,8.06,1,13.21q-26.54,42.2-53.15,84.36l-2.93,4.7c2.11.1,3.5.22,4.88.23,16.41,0,32.81,0,49.21,0,5.49,0,8.78,2.09,10.12,6.2s0,7.94-4.24,11.16q-88.2,66.69-176.4,133.33c-5.1,3.85-9.92,3.84-13.56.15-3.49-3.54-3.4-8.48.38-13.63q27.39-37.35,54.81-74.66C792,580,792.88,578.63,794.31,576.55ZM790,614l.88.83,101.37-76.66-.44-1.1h-4.28c-12.26,0-24.52-.06-36.79,0-4.11,0-7.65-1-9.77-4.81s-1.18-7.31,1-10.81q14.25-22.44,28.36-45c1.28-2,2.51-4.09,3.77-6.14l-.67-.49L769.18,557.1a15,15,0,0,0,6.21,1c12,0,23.93,0,35.9,0,4.14,0,7.61,1.15,9.64,5,2.13,4.06,1,7.68-1.66,11.11-3.13,4.12-6.16,8.3-9.22,12.47Z" transform="translate(-552.54 -226.17)"/><path class="cls-1" d="M655,433.31c12,1,15.34,2.95,15.59,9.06s-3,8.4-15.52,10.12c-.35,7.13.42,15.68-10.7,15.08-5.6-.3-7.5-4.1-8.26-15.6-1.93,0-3.93.07-5.91,0-5.89-.25-9.61-4-9.51-9.42.1-5.28,3.77-8.76,9.48-8.93,1.88-.06,3.76,0,6,0,.46-7.28-.59-16,9.85-15.67C655.68,418.19,654.75,426.39,655,433.31Z" transform="translate(-552.54 -226.17)"/><path class="cls-1" d="M1018.15,433.6c5.3,0,10.61-.11,15.91,0s9,3.73,9.12,8.81-3.25,9.26-8.55,9.4q-16.34.45-32.7,0c-5.47-.14-9-4.5-8.68-9.73.28-5,3.93-8.41,9.43-8.54,5.15-.11,10.31,0,15.47,0Z" transform="translate(-552.54 -226.17)"/></svg>