<svg id="Layer_1" data-name="Layer 1" xmlns="http://www.w3.org/2000/svg" viewBox="0 0 596.04 328.36"><defs><style>.cls-1{fill:#fff;}</style></defs><path class="cls-1" d="M1086.17,634.17c0,16.67,0,32.65,0,48.62,0,9.33-2.07,11.37-11.5,11.37q-34,0-68,0c-8.85,0-11.16-2.3-11.16-11.34q0-59.49,0-119V557h-287v6q0,59,0,118a49.84,49.84,0,0,1-.25,6c-.53,4.39-3,7.08-7.52,7.09-25,.07-50,.11-75,0-5.18,0-7.83-3.39-7.87-9.52-.1-14.83,0-29.66,0-44.49v-5.87c-7.61,0-14.73,0-21.85,0-26-.08-42-16.16-42-42.19q0-62.73,0-125.47c0-19.88,11.34-35,29.61-39.47a56.08,56.08,0,0,1,11.89-1.15c7.15-.17,14.32-.05,22.31-.05v-5.41q0-21.74,0-43.49c0-8.58,2.49-11.08,10.94-11.09q34.25,0,68.48,0c9.06,0,11.22,2.12,11.23,11.21q0,59.74,0,119.48v6.65h287v-6.56q0-58.49,0-117c0-1.67-.06-3.34.06-5,.41-6,3.09-8.76,9.15-8.78q36-.11,72,0c6.94,0,9.43,2.68,9.46,9.88.06,14.66,0,29.33,0,44v6.13c8.59,0,16.86-.19,25.12,0,18.22.49,32.43,11.32,37.17,28.54a49.35,49.35,0,0,1,1.48,12.84q.15,62.75,0,125.47c0,25-16.27,41.28-41.23,41.41C1101.45,634.2,1094.15,634.17,1086.17,634.17ZM691.71,677.83V382.59H634.43V677.83h57.28Zm377.69-.23V382.44h-57.1V677.6ZM617.57,442.78c-9.71,0-19.18-.55-28.57.17-8.1.62-13.87,5.74-16.64,13.32a36.46,36.46,0,0,0-1.78,12.24q-.18,61.5-.06,123a57.09,57.09,0,0,0,.32,6C571.93,608,578.68,616,589,617c9.35.93,18.86.2,28.56.2Zm469.25,175.05c6.52,0,12.81.16,19.09-.05,4.12-.15,8.4-.26,12.31-1.4,10.11-3,15.25-11.33,15.26-24.16q.06-62.18,0-124.36a47.6,47.6,0,0,0-.47-7c-1.37-9.11-8-16.92-17.1-17.8-9.5-.92-19.17-.2-29.08-.2Z" transform="translate(-553.98 -365.82)"/></svg>