<svg id="Layer_1" data-name="Layer 1" xmlns="http://www.w3.org/2000/svg" viewBox="0 0 828.04 699.96"><defs><style>.cls-1{fill:#fff;}</style></defs><path class="cls-1" d="M562.94,725.58l37.18-28.24c-1.38-1.45-2.58-2.77-3.84-4-28.28-28-56.48-56.16-84.91-84-8.18-8-17.59-14.87-25.37-23.26a115.31,115.31,0,0,1-16.86-23.36c-9.64-17.86-8-36.13,0-54.37,6.59-15.15,17.93-26.76,28.11-39.24,29.09-35.69,64.12-64.35,104.42-86.47,17.17-9.43,34-19.73,53.92-23,20.17-3.35,39.11-.36,56.7,10.24a64.5,64.5,0,0,1,5.66,4.09,6.23,6.23,0,0,1,2.29,3.19c-5.43-.74-10.86-1.44-16.28-2.23-7.41-1.08-14.81-2.24-22.22-3.35-25.46-3.84-49.92,12.54-56.43,37.79C618.9,434,632.44,460.82,656.57,469c9.81,3.32,20.5,4.07,30.79,6,1.09.21,2.18.45,4.49.93-38,25.8-75.54,50.53-107.65,82.56l23.88,24.2c-4.53.38-8,.55-11.34,1-25.56,3.36-39.15,30.27-26.23,52.59,7,12.06,18.12,17.91,32,17.67,23.49-.39,47-1,70.46-1.72,3.23-.09,5.64.6,7.92,3,5.8,6.2,12.24,11.83,17.75,18.27,16.18,18.88,14.3,45.94-5.11,61.36-25.93,20.61-52.6,40.27-79.07,60.44C593.53,774.71,574.21,753.3,562.94,725.58Z" transform="translate(-327.87 -188)"/><path class="cls-1" d="M1044.94,718.78c-16,24.34-33,47.44-58.12,63.94-10.26-8.76-20.62-17.31-30.63-26.26a39.63,39.63,0,0,1-13.69-30,57.23,57.23,0,0,1,3.31-18.49c13.05-38.11,26.46-76.1,39.75-114.13.6-1.69,1.14-3.4,1.79-5.34-42.6-10.07-85.73-11.12-129.81-13.48,6.53-6.93,12.32-13.24,18.29-19.38,9.74-10,15.08-21.91,15.09-35.87a46.46,46.46,0,0,0-8-26.89c-.72-1-1.29-2.21-2.43-4.2,9.34,1.38,17.82,2.63,26.3,3.9,15,2.23,29.93,4.69,44.95,6.65a35.07,35.07,0,0,0,39.66-34.92c0-1.32,0-2.63,0-4.67,8.28,2.44,16.32,4.45,24.11,7.17,15,5.26,30.56,9.34,44.25,18.07,23.22,14.81,34.17,39.21,29.8,66.46-2.47,15.37-7.27,30-12.65,44.53-11.78,32-22.71,64.27-34,96.44-1.64,4.69-3.08,9.48-5,14.05-1.54,3.61-1.34,6.21,2.24,8.36A36.72,36.72,0,0,1,1044.94,718.78Z" transform="translate(-327.87 -188)"/><path class="cls-1" d="M753.87,342.17,779,358.22l-.15,1.29c-4.29.54-8.57,1.4-12.87,1.58-52.24,2.21-94.72-42.72-89.79-94.88,3.65-38.75,34.25-71.26,72.61-77.14,39.64-6.09,76.9,14.26,93.09,51,1.35,3.07,3.09,3.82,6.28,4.33A215.36,215.36,0,0,1,873.84,250c2.31.67,5.08,4,5.29,6.29.17,1.85-2.87,4.72-5.13,5.88a23,23,0,0,1-9.91,2.54c-22.67.21-45.34.09-68,.15-1.78,0-3.88,0-5.28.84-10.55,6.64-21,13.49-31.81,20.52,8.3,9.38,16.19,18.37,24.2,27.25a10.08,10.08,0,0,0,3.87,2.14,116.81,116.81,0,0,0,11.76,4.2c10.49,2.76,21.06,5.23,31.81,7.88l-2.85,4.77c8.13.72,15.69,1.66,23.26,1.78,1.23,0,2.51-3.55,4.4-6.43l-16.61-1.53c.12-2.27.22-4,.36-6.58l23.07,1.45c-2.38,21.94-10.11,42.18-15.5,64.15-19.72-7.92-41-9.9-59.62-21.65l3.63-5.74c15.56,10.37,33.8,11.74,51.07,18.53,3.29-11.74,6.43-22.95,9.75-34.82-6.82-.6-12.73-1.36-18.66-1.57-4.58-.16-8.33-.49-6-7.29-4.94-.54-9.52-.82-14-1.6A59.69,59.69,0,0,1,801,328.12c-7.72-3.09-15.29-6.58-22.82-10.11-2.51-1.18-4.12-1.1-5.93,1.23C766.42,326.74,760.39,334.07,753.87,342.17Z" transform="translate(-327.87 -188)"/><path class="cls-1" d="M974,595.34c-8.47,24.21-16.48,47.11-24.48,70a23.42,23.42,0,0,0-.8,2.36c-3.45,14.88-11.42,27.09-22.15,37.67a16.44,16.44,0,0,1-3.83,3.12c-22.56,11.53-45.43,22.2-70.83,26.08-8.31,1.27-8.4,1.53-11.62-6.37-2.58-6.29-5.61-12.56-7-19.14-2.95-13.72,1-26,10-36.66q34.08-40.21,68.15-80.43c2-2.38,3.92-3.55,7.18-3.15C936.77,591.09,954.94,593.13,974,595.34Z" transform="translate(-327.87 -188)"/><path class="cls-1" d="M777.17,427.15C775,437.43,772.77,449,770,460.37c-.88,3.6-3.13,6.95-5.14,10.17C762,475,758,477,752.5,476.18c-19.41-3-38.84-5.76-58.25-8.68-9.22-1.38-18.44-2.76-27.62-4.34-20.41-3.5-35-21.59-34.62-42.65.4-20.46,16.09-38.59,36.44-40.4,8.93-.8,18.18.73,27.18,2,21.26,2.92,42.43,6.51,63.71,9.37,7.4,1,11.64,5.13,13.38,11.57C774.7,410.35,775.54,418,777.17,427.15Z" transform="translate(-327.87 -188)"/><path class="cls-1" d="M750.61,575.88a146.14,146.14,0,0,0,42.65,35.41c-6.45,7-12.52,13.36-18.25,20-7,8.08-15.46,11.53-26.31,11.72-48.13.84-96.26,2.24-144.39,3.49-16.69.44-29.56-10-31.16-25.34-1.63-15.73,10.79-29.68,27.06-30.13,24.81-.68,49.63-1.21,74.45-1.8,19-.45,38-1.11,57-1.22,5.65,0,10-1.41,13.29-6A65.49,65.49,0,0,1,750.61,575.88Z" transform="translate(-327.87 -188)"/><path class="cls-1" d="M598.6,558c11.68-9.56,23-19.7,35.15-28.57,22.6-16.45,45.75-32.13,68.62-48.19a13.31,13.31,0,0,1,11.21-2.4,116.16,116.16,0,0,0,17.26,2.67c5.18.33,8.51,2.75,11.59,6.59a86.38,86.38,0,0,1,18.24,40,9.5,9.5,0,0,1-2,6.53,91.85,91.85,0,0,1-9.14,9.89c-6.09,5.93-7.27,13-4.46,20.61,1.17,3.18.32,4.89-1.54,7.44-4.46,6.13-10,7.76-17.47,7.84-33.29.36-66.58,1.37-99.87,2.08-1.56,0-3.66-.1-4.63-1.05C614,574,606.66,566.28,598.6,558Z" transform="translate(-327.87 -188)"/><path class="cls-1" d="M777.58,465.28c6.44-18.17,7.79-36.26,6-55.2,11.37,1.7,22,3.27,32.63,4.9q58.21,8.88,116.43,17.81c9.53,1.46,19.15,2.56,28.58,4.54,15.75,3.3,24.75,16.76,22.07,32.12-2.57,14.69-16.15,24.45-31.69,22.22-24.37-3.51-48.69-7.41-73-11.1q-44.89-6.79-89.81-13.52C785.32,466.54,781.9,466,777.58,465.28Z" transform="translate(-327.87 -188)"/><path class="cls-1" d="M882.58,519.82a41.58,41.58,0,0,1-11.46,28.51c-18,19.43-36.11,38.71-54.06,58.17-2.35,2.54-4.78,3.53-7.93,2.43-3.6-1.25-7.33-2.35-10.63-4.18-16.29-9-31.22-19.84-42-35.41-6.75-9.79-6.16-13.69,1.84-22.22q25.3-26.94,50.56-53.93a65.18,65.18,0,0,1,7.67-7.1c5.31-4.07,10.94-6.14,18.07-4.52,9.22,2.09,18.73,2.87,28.07,4.52a13.87,13.87,0,0,1,6.51,3.09A40.89,40.89,0,0,1,882.58,519.82Z" transform="translate(-327.87 -188)"/><path class="cls-1" d="M505.32,756c-20-15.55-38.86-32-52-54.44,9.74-9.27,19.13-18.46,28.83-27.31A10.87,10.87,0,0,0,486,664.7c-1-21.62-1.86-43.26-2.78-65.54,1.25.89,2.15,1.43,2.95,2.09,29.5,24.54,55.28,53,82.7,79.67a10.29,10.29,0,0,1,2.79,6.91c-.38,11.52-3.48,21.46-13.86,28.75-16.48,11.58-32.22,24.19-48.29,36.36C508.22,753.93,506.86,754.87,505.32,756Z" transform="translate(-327.87 -188)"/><path class="cls-1" d="M378.43,772.58c10.32,12.26,19.84,24.25,30.13,35.53,7.26,8,15.46,15.08,23.45,22.33,2.94,2.66,2.91,5.42.58,7.66-12.11,11.65-23.8,23.88-36.87,34.37-17.69,14.2-42.27,11-57.55-6.06-14.21-15.85-13.79-40.84,1.68-56.71C352.28,797,365.48,785,378.43,772.58Z" transform="translate(-327.87 -188)"/><path class="cls-1" d="M884.81,831.69c27.3-8.24,56.26-11.11,79.43-30.67,4.61,13.24,13.34,25.55,15,40.49,2.21,19.53-10.52,38.71-29.07,44.37-20.09,6.13-40.64-1.54-50-19.58C894.39,855.13,889.91,843.28,884.81,831.69Z" transform="translate(-327.87 -188)"/><path class="cls-1" d="M1123.83,785.77c7,6.2,14.28,11.83,20.62,18.37,15.17,15.65,15.19,41.63.54,58.26s-40.18,19.41-57.87,6.05c-7.4-5.59-14.19-12-21.61-18.32C1086.77,830.28,1109.48,812.27,1123.83,785.77Z" transform="translate(-327.87 -188)"/><path class="cls-1" d="M480.47,788.11c14.89,24.86,28.43,50.36,50.8,70.29-10.54,7.1-19.33,16.7-32.12,20.26a44,44,0,0,1-49.81-21.25c-9.41-17.35-5.49-39.8,9.62-52.76C465.77,798.82,473.17,793.68,480.47,788.11Z" transform="translate(-327.87 -188)"/><path class="cls-1" d="M849,272c.78,16.64-3.44,31.44-11.24,45.31-.59,1.06-2.62,1.75-4,1.86-15.78,1.22-30-4.66-44.29-10a6.37,6.37,0,0,1-2.41-1.65c-5.73-6.47-11.39-13-17.53-20,8.05-5.14,15.81-10.12,23.62-15a4.75,4.75,0,0,1,2.4-.43C813.16,272,830.78,272,849,272Z" transform="translate(-327.87 -188)"/><path class="cls-1" d="M605,803.63c-.08,7.68-5.92,11.79-11.47,9.54a17.41,17.41,0,0,1-5.35-3.51A235.69,235.69,0,0,1,542.35,749a14.29,14.29,0,0,1-1.8-7.51c.38-4,3.35-6.47,7.33-7.09,4.14-.65,6.9,1.65,9,5,5.7,9.17,10.77,18.83,17.31,27.36,8.27,10.79,17.78,20.63,26.66,31A58.41,58.41,0,0,1,605,803.63Z" transform="translate(-327.87 -188)"/><path class="cls-1" d="M877,823.12c-7.05.34-10.73-2.2-11.14-7.76s2.9-8.72,9.69-9.51a166.11,166.11,0,0,0,66.87-23.17c5.23-3.14,10.3-2.45,13.14,1.86s1.39,9.72-3.78,12.81C928.65,811.18,903.92,820.39,877,823.12Z" transform="translate(-327.87 -188)"/><path class="cls-1" d="M1114.18,779a25.14,25.14,0,0,1-1.73,4.71c-13.34,23.29-30.62,43.08-52.61,58.61-5.44,3.83-10.53,3.37-13.58-1-3-4.26-1.81-9.13,3.33-12.87a168.37,168.37,0,0,0,47.9-53.56c2.34-4.11,5.67-6.15,10.35-4.86C1111.77,771.09,1113.87,773.92,1114.18,779Z" transform="translate(-327.87 -188)"/><path class="cls-1" d="M498,771.64c3.86.11,6.28,3,8,6.92,7.79,17.93,19.08,33.49,32.55,47.51,3.12,3.24,6.44,6.29,9.78,9.29,4.36,3.92,5.32,8.73,2.36,12.73s-8.47,4.76-12.83.88a220.2,220.2,0,0,1-20.17-20,165,165,0,0,1-27.84-44.16C486.79,777.62,490.19,771.64,498,771.64Z" transform="translate(-327.87 -188)"/><path class="cls-1" d="M1067.12,734.83a22.29,22.29,0,0,1-1.66,4.39,232.15,232.15,0,0,1-52.75,60c-4.81,3.89-10.6,3-13.36-1.68-2.46-4.12-1.29-8.19,3.12-12.28,7.79-7.24,16.09-14.06,23-22.07,9.09-10.53,17.11-22,25.44-33.18,2.59-3.47,5.69-5.13,9.85-4C1064.73,727.08,1066.69,730,1067.12,734.83Z" transform="translate(-327.87 -188)"/><path class="cls-1" d="M931.63,719c.33,5.8.76,9.95.69,14.09a5.06,5.06,0,0,1-2.24,3.66,242.64,242.64,0,0,1-73.49,25.92,8.81,8.81,0,0,1-10.4-7.13c-.8-4.4,2.1-8.21,7.26-9.73,15.6-4.57,31.33-8.78,46.72-14,7.81-2.63,15-7.2,22.53-10.59C925.36,720.05,928.43,719.76,931.63,719Z" transform="translate(-327.87 -188)"/><path class="cls-1" d="M495.94,763.07,481.74,774c-18.09-14.32-33.94-30.32-47.08-48.9-3.21-4.54-2.2-9.63,2.19-12.61,4.06-2.76,8.67-1.81,12.06,2.92C461.9,733.54,477.5,749.06,495.94,763.07Z" transform="translate(-327.87 -188)"/><path class="cls-1" d="M444.28,804.14l-8,15.61a161.55,161.55,0,0,1-32.95-30.45,223.39,223.39,0,0,1-14.55-20.2c-3.15-4.76-2.12-9.51,2-12.29s9.12-2.09,12.17,2.65A169.8,169.8,0,0,0,444.28,804.14Z" transform="translate(-327.87 -188)"/><path class="cls-1" d="M819.47,339.24a74.7,74.7,0,0,1-27.72,16.93,4.82,4.82,0,0,1-3.62-.31c-7.9-4.93-15.7-10-24-15.36,4.21-5.24,8.23-10.25,12.27-15.3C790.81,330.07,803.27,340.12,819.47,339.24Z" transform="translate(-327.87 -188)"/><path class="cls-1" d="M775.6,516.46c1.25-12,5.87-21,11.2-30,5-8.41,11.09-12.76,21-8.78a18.75,18.75,0,0,0,3.84.66Z" transform="translate(-327.87 -188)"/></svg>