<svg id="Layer_1" data-name="Layer 1" xmlns="http://www.w3.org/2000/svg" viewBox="0 0 773.67 773.8"><defs><style>.cls-1{fill:#fff;}</style></defs><path class="cls-1" d="M779,930.26a18.51,18.51,0,0,1-2.72-1.77c-1.49-1.32-2.84-2.81-4.25-4.23Q643.19,795.41,514.26,666.62c-3.16-3.15-3.69-5.68-2.56-9.91,19.07-71.49,47.25-139,87.73-201.09A556.2,556.2,0,0,1,722.59,320.8c60.67-47.63,127.95-82.73,201.14-106.6,20.55-6.71,41.54-12.1,62.42-17.77,1.77-.48,4.77.89,6.25,2.36q50.16,49.88,100.08,100Q1167,373.44,1241.65,448c2.66,2.67,3.39,4.9,2.48,8.66-20.55,85.09-54.39,164.29-104.85,236Q1068.07,793.94,961,856.36c-56.29,33-116.31,56.76-179.31,73.3C781,929.83,780.39,930,779,930.26Zm48.85-277.21c9.7,9.72,19.62,19.36,29.17,29.36,3.42,3.57,6.84,4.44,11.13,2.52,13.21-5.89,22.58-15.66,28.59-28.7,1.71-3.71,1-6.88-2.13-9.89-9.09-8.81-18-17.86-26.91-26.82-1.12-1.13-2.18-2.33-3-3.17L884,597c9.8,9.88,19.86,19.85,29.72,30,2.8,2.89,5.81,4,9.4,2.41a54.59,54.59,0,0,0,29.4-29.14c1.76-4,.84-7.43-2.6-10.69-8.93-8.49-17.51-17.37-26.22-26.1-1.13-1.13-2.18-2.32-2.81-3l19.48-19.44c9.21,9.5,18.89,19.14,28.15,29.15,4,4.33,8.1,4.78,12.94,2.35,11.88-6,20.58-15.11,26.53-26.9,2.27-4.49,1.86-8.6-2.34-12.06-2.43-2-4.51-4.44-6.75-6.67l-22.49-22.45,19.66-18.77c9.12,9.17,18.62,18.75,28.14,28.31,4.82,4.84,7.09,5.48,13.24,2.5,12-5.8,20.69-14.95,26.55-26.83,2.27-4.59,1.41-8.35-2.45-12.05-9.94-9.54-19.56-19.42-29.45-29.3,5.82-6.21,12.09-11.66,13.11-20.49,1-8.67-1.27-16.3-7.45-22.4-11.65-11.52-25.36-9.62-42.56,5.75-1.18-1.1-2.4-2.19-3.56-3.35Q977,393.2,962.32,378.53c-5.43-5.43-8.07-5.86-14.92-2a60.83,60.83,0,0,0-23.77,23.69c-3.93,7.11-3.59,9.59,2.14,15.31,10.83,10.82,21.67,21.63,32.32,32.24l-19.2,19.1c-.88-.83-2.1-1.92-3.27-3.08-9.9-9.9-20-19.63-29.62-29.78-4-4.23-8-4.83-12.92-2.4a58.46,58.46,0,0,0-23.37,21.22c-6.63,10.18-6.33,12.33,2.25,20.89,10.12,10.11,20.25,20.2,30,29.93l-19.08,19.07c-11-11-22.4-22.28-33.57-33.73-3.15-3.23-6.47-4-10.34-2.23a57.13,57.13,0,0,0-28.7,28.66c-1.8,3.83-1.09,7.17,2.19,10.34,10.29,10,20.33,20.2,30.45,30.35,1.25,1.24,2.41,2.57,3.26,3.49l-19.25,19.29c-11.07-11.13-22.43-22.38-33.57-33.86-3.14-3.23-6.46-4.07-10.32-2.28a57.21,57.21,0,0,0-28.75,28.61c-1.78,3.85-1.14,7.17,2.13,10.35,10.29,10,20.33,20.21,30.46,30.35,1.25,1.25,2.42,2.57,3.2,3.4l-19.37,19.4a28.51,28.51,0,0,0-2.74-3.67c-10.1-10.17-20.3-20.24-30.35-30.45-2.45-2.49-5.08-4-8.45-2.67-14.67,5.76-25.22,15.83-31,30.58-1.34,3.4-.41,6.26,2.39,9,9.37,9,18.48,18.29,27.72,27.43,2.2,2.17,4.53,4.21,7.07,6.55-6.11,6-11.55,11.42-17,16.79-4.52,4.46-7.58,9.71-8.39,16.07-1.36,10.77,4.27,21.69,13.44,26.34,10.59,5.36,22,3.85,30.44-4.43,5.89-5.8,11.41-12,17.33-18.25,10.7,10.7,20.6,20.34,30.16,30.31,3.62,3.78,7.32,4.36,11.65,2.2,11.8-5.92,21.14-14.46,27-26.44,3.09-6.35,2.63-8.26-2.43-13.22-9.74-9.55-19.55-19-29.2-28.4Z" transform="translate(-488.7 -178.39)"/><path class="cls-1" d="M497.74,724.77,716.27,943.25c-5.21.87-10.48,1.88-15.79,2.59-40.54,5.48-81.22,8.15-122.1,5-17.62-1.34-35-4-51.9-9.68-13.52-4.52-22.23-13.16-26.77-26.7-5.5-16.41-8.25-33.29-9.58-50.41-3.6-46.42-.11-92.52,7.14-138.4A3.26,3.26,0,0,1,497.74,724.77Z" transform="translate(-488.7 -178.39)"/><path class="cls-1" d="M1258.09,389.06,1052.44,184c4.27-.63,8.25-1.52,12.27-1.76,24.92-1.47,49.84-3.77,74.77-3.89,25.45-.11,50.71,2.75,75.45,10,20.7,6,32.53,19.21,38.14,39.47,7.36,26.58,9.89,53.71,9.19,81.07C1261.58,335.32,1259.56,361.71,1258.09,389.06Z" transform="translate(-488.7 -178.39)"/></svg>