<svg id="Layer_1" data-name="Layer 1" xmlns="http://www.w3.org/2000/svg" viewBox="0 0 540.55 627.42"><defs><style>.cls-1{fill:#fff;}</style></defs><path class="cls-1" d="M852,620.05c-5,16.11-8.77,31.49-14.39,46.17C826.11,696.37,808.38,723,788,747.88c-37.75,46.18-82.88,84.16-132,117.66a144.78,144.78,0,0,1-17.93,10.81c6.9-8.39,13.9-16.7,20.68-25.2,43.49-54.54,81.78-112.29,107.76-177.43,12.09-30.34,20.88-61.65,20.67-94.6-.23-37.31-1.39-74.62-2.53-111.92-.22-7.08-1.82-14.2-3.55-21.11-1.68-6.69-3.9-7.45-10.18-4.73-23,9.92-46.35,18.63-70.84,24-26.1,5.73-52.31,8.13-78.73,1.93-34.87-8.17-59.06-29.28-74.35-61.22-.86-1.8-1.62-3.65-2.46-5.46a17.43,17.43,0,0,0-1.1-1.74c-22.44,5.52-44.92,3.56-67.37-1.82,15.3-39.7,61.19-67.76,127.79-49.62C600,357.49,594.55,366.72,586.7,374s-16.44,13.28-25.07,20.14c13.36,14.91,29.24,27.78,49.5,34.76,26.65,9.18,51.93,4.87,76.31-7.5,16.29-8.26,31.55-18.51,44-31.73,18.78-19.9,41.41-29.94,68.3-30.23,18.11-.19,36.35,0,54.32,1.94,10.9,1.18,21.42,5.93,32.08,9.17,18.45,5.6,36.72,11.89,55.36,16.74,14.49,3.77,24-.5,29.67-11.84A68.09,68.09,0,0,0,977,358.56c4.08-20.12,3.1-40.45,1.46-60.75-.59-7.27-1.44-14.52-1.4-22.05,2.8,7.78,5.84,15.47,8.37,23.34,7.9,24.65,14.39,49.59,13.7,75.8-.3,11.23-1.83,22.19-6.51,32.58-8.07,17.93-21.62,27.11-41.49,27.07-27,0-52.76-6.49-78.4-13.93-2.39-.69-4.78-1.4-7.92-2.33-.7,5.88-1.8,11.43-1.93,17C862,472.93,867.5,510,872.4,547.2c.5,3.81,1.93,5.67,5.66,6.88,18.1,5.86,35.5,13.35,51.72,23.43C972.34,604,998.48,642,1010,690.5a256.78,256.78,0,0,1,4.38,93.33c-2.42,18.43-6.83,36.6-10.37,54.87a11.62,11.62,0,0,1-1.44,3.62,429.92,429.92,0,0,0-10.45-68.41c-7.31-30.94-17.16-60.91-34.23-88-16.47-26.17-37.51-47.11-67.21-57.91a107.74,107.74,0,0,0-16.28-4.71C866.7,621.77,858.92,621,852,620.05Z" transform="translate(-476.13 -248.93)"/><path class="cls-1" d="M799.92,350.08a50.58,50.58,0,1,1,50.91-50.24A50.52,50.52,0,0,1,799.92,350.08Z" transform="translate(-476.13 -248.93)"/></svg>