<svg id="Layer_1" data-name="Layer 1" xmlns="http://www.w3.org/2000/svg" viewBox="0 0 575.77 575.89"><defs><style>.cls-1{fill:#fff;}</style></defs><path class="cls-1" d="M845.41,793.83q-91.23,0-182.47,0c-24.45,0-46.77-6.43-66.11-21.67-23.5-18.52-36.35-42.91-38.83-72.67-.61-7.29-.49-14.65-.49-22q0-176.49,0-353c0-17.07,2.47-33.62,10.27-48.9,17.9-35.05,46.74-54.05,85.89-57.45,3-.26,6-.21,9-.21q182.73,0,365.45,0c28.08,0,52.81,8.63,73.24,28,19.29,18.28,29.83,41,31.64,67.56.28,4.15.22,8.33.22,12.5q0,181.23.07,362.45c0,23.79-6.06,45.47-20.46,64.48-17.93,23.68-41.86,37-71.41,40.15a170.84,170.84,0,0,1-18,.7Q934.41,793.88,845.41,793.83Zm249.08-288c0-61-.31-122,.12-183,.28-39.79-31-66.32-66.19-66.13-122.16.65-244.33.23-366.49.32a75.6,75.6,0,0,0-17.34,1.63c-29.49,7-48.39,32.1-48.4,64q-.08,183.24,0,366.49a77.87,77.87,0,0,0,1.49,15.39c6.11,30,31.55,50.38,62.78,50.39q176.75.06,353.5,0c6.83,0,13.68.23,20.49-.13a61.08,61.08,0,0,0,38.18-15.38c15.38-13.52,21.89-30.86,21.86-51.11Q1094.38,597.14,1094.49,505.88Z" transform="translate(-557.46 -217.96)"/><path class="cls-1" d="M845.34,476.51c-39.31,0-78.63.08-117.94-.12a32.63,32.63,0,0,1-13.49-2.62c-7.49-3.57-10.3-10.43-10-18.61,1.53-41.39,17.41-76.2,48.34-103.78,30.19-26.91,66-38.53,106-35,61.58,5.43,112.9,51.9,125.46,112.41,1.88,9.08,2.47,18.48,2.95,27.77.52,10-7,18.23-16.93,19.54a52.35,52.35,0,0,1-7,.39Q904.06,476.52,845.34,476.51Zm-100.17-39h74.65c-5.14-10.26-10.11-20-14.9-29.84a40.83,40.83,0,0,1-3.41-9.31c-1.72-8.18,3-16.87,10.77-20.56a18.65,18.65,0,0,1,22.58,4.9,47,47,0,0,1,5,8c8,15.66,15.83,31.39,23.58,46.8H945.7c-6.58-41-44.05-83.17-100.27-83.11C789.9,354.5,752.22,395.14,745.17,437.55Z" transform="translate(-557.46 -217.96)"/></svg>