<svg id="Layer_1" data-name="Layer 1" xmlns="http://www.w3.org/2000/svg" viewBox="0 0 750.36 461.1"><defs><style>.cls-1{fill:#fff;}</style></defs><path class="cls-1" d="M574.25,558.57c1.55-1.21,2.71-2.13,4.21-3.32l-5-7.89c-.58,0-1-.14-1.19,0-6,5.63-11.23,3.45-17.46-.52-24.14-15.39-48.65-30.21-73-45.25-1.12-.69-2.19-1.45-4-2.62,1.84-1.18,3.28-2.15,4.75-3.05,25.22-15.57,50.52-31,75.59-46.8,4.26-2.68,7.56-3.37,11.37.06a26.9,26.9,0,0,0,3.53,2.2l5.34-8.52-4.14-3.55c9.25-5.73,18.4-11.42,27.56-17.07,17.58-10.84,35.26-21.49,52.67-32.59,4.24-2.7,7.53-3.53,11.37.05a19.06,19.06,0,0,0,3.65,2.07l5.22-8.37-3.86-3.52c1.47-1,2.75-2,4.11-2.8,25.22-15.56,50.53-31,75.59-46.79,4.42-2.78,7.8-3.61,11.78,0a24.56,24.56,0,0,0,3.39,2.08l5.47-8.56c-1.45-1.15-2.7-2.16-4.28-3.43,7.67-4.74,15.14-9.38,22.62-14,20-12.33,39.94-24.68,60-36.87,1.52-.92,4.36-1.46,5.66-.66,27.88,16.93,55.63,34.09,83.82,51.45l-4.23,3.43,5,8.17c.73-.05,1.16.06,1.34-.11,5.7-5.46,10.68-3.87,16.9.12,24,15.36,48.36,30.06,72.59,45,1.39.87,2.77,1.76,4.55,2.9l-4,3.47,5.66,9.14c6.83-9,12.84-3.82,19.33.23,23.43,14.65,47,29.06,70.55,43.56,1.55,1,3.07,2,5,3.18l-4.19,3.36c1.75,2.74,3.41,5.36,5,7.89.56,0,1,.14,1.18,0,6-5.66,11.23-3.43,17.45.53,24,15.3,48.38,30,72.61,45,1.26.77,2.48,1.62,4.39,2.87-1.83,1.19-3.26,2.16-4.73,3.06-25.08,15.48-50.25,30.81-75.17,46.55-4.58,2.89-8.12,3.75-12.2-.09a20,20,0,0,0-3.14-1.9l-5.33,8.49,4.11,3.54c-1.88,1.18-3.65,2.33-5.45,3.44-24.8,15.3-49.69,30.45-74.33,46-4.58,2.88-8.12,3.77-12.24-.06a15.48,15.48,0,0,0-3.21-1.8l-5.22,8.35,3.87,3.53c-1.47,1-2.75,1.94-4.1,2.78-25.22,15.56-50.54,31-75.6,46.79-4.41,2.79-7.79,3.63-11.77.06a24.62,24.62,0,0,0-3.41-2.09l-5.45,8.55c1.44,1.15,2.69,2.16,4.28,3.45-13.05,8.06-25.91,16-38.77,23.94-14.6,9-29.17,18.06-43.86,26.9-1.52.92-4.36,1.47-5.66.68-27.89-16.94-55.64-34.09-83.83-51.46l4.23-3.44-5-8.15c-.72,0-1.16-.07-1.33.09-5.7,5.45-10.68,3.89-16.91-.11-24-15.36-48.35-30.06-72.57-45-1.4-.87-2.78-1.76-4.57-2.89l4-3.48-5.64-9.15c-6.83,9-12.83,3.85-19.33-.22-23.57-14.74-47.3-29.23-71-43.82C577.4,560.66,576,559.73,574.25,558.57Zm461.53-71.91-5.31,8.7,4.72,3.66-4.81,3.73,5.69,9c5.87-6,11.78-7.68,18.53-.43.34-5,7.67-7,2.23-12.22,3-3.39,2.35-5.61-3.53-11.39C1047.41,495.28,1041.62,490.91,1035.78,486.66ZM651.16,511.58c5.87-7,11.86-6.65,17.84-.76,1.27-1.91,2.21-3.23,3-4.61s1.6-2.81,2.36-4.16L671,498.88c4.08-3.36,3.73-4.9-2.63-11.44-5.62,6.63-11.57,4.77-17.45-.68-2.05,3.38-3.73,6.12-5.37,8.83l3.82,3.54-3.92,3.2ZM863.57,499l3.53-3.12-5.83-8.82c-6.35,7.79-12.17,4.18-17.94-.42-2,3.26-3.71,6-5.4,8.78l4.38,3.71-4.41,3.32,5.57,9c5.87-5.75,11.91-7.43,18.2-.83l5.4-8.7Zm-122-56,5.63,9.08c6-6.23,12.1-7.38,18.18-.48l5.64-9.11-3.84-2.9,3.53-2.94-5.82-9.37c-6,8.64-11.86,4.3-17.75.27l-5.31,8.71,4.23,3.37ZM765,570.56l5.69-9.34c-1.37-1-2.4-1.82-3.53-2.68l3.77-3.16-5.1-8.24c-3.69,1.74-6.83,4.44-9.84,4.29s-5.94-3.12-9.19-5l-5.24,8.7,4.54,3.41-4.35,3.2,5.59,9C753.1,565.56,758.86,563.11,765,570.56ZM843,392.37c3.38-2,6.29-5,9.32-5.17s6.44,2.49,10,4.07l5-8.31-4.55-3.6,4.38-1.64-5.94-9.62c-6.1,7.53-11.92,5.16-17.53-.33-2,3.32-3.74,6.1-5.53,9l4.31,3.31-4.79,3.62ZM958.37,547.43c-3.59,1.58-6.78,4.17-9.78,4s-6-3.15-9.26-5.07c-1.91,3-3.62,5.78-5.32,8.51l4.81,3.64-4.49,3.62c1.81,2.91,3.44,5.56,5.43,8.77,5.78-5,11.65-8,17.75-.46,2.13-3.4,3.86-6.17,5.67-9.08L960,558.47l3.67-2.69ZM934.25,436.1l4.6,3.35L934,443.32l5.41,8.29c3.31-1.93,6.24-4.9,9.35-5.09s6.14,2.53,9.57,4.14l5.07-8.07L960,439.5l3.15-2.92c-1.87-2.93-3.62-5.68-5.77-9-6.12,8-12,4-17.78-.28Zm-91.8,181.77-4.24,3.51,5.5,8.8c5.58-5.35,11.42-7.86,17.51-.58,2.14-3.4,3.89-6.16,5.57-8.84l-3-2.8,3.45-3.18c-1.82-2.94-3.46-5.56-5.6-9-6.48,8.24-12.61,4.41-18.62-.29l-5.43,8.91ZM909.55,339l-24,14.77,5.64,8.89L915,348Zm96.63,178.25-24,14.74,5.54,9,23.86-14.63ZM789.4,413l5.68,8.9,23.84-14.69-5.54-8.94Zm102,103.5-5.52,9,24,14.74,5.48-9Zm120.33-44.79L987.64,457l-5.43,9,23.94,14.69Zm-120.38,9.75,24-14.74-5.58-9-23.91,14.74ZM789.44,585l24,14.75c1.92-3.22,3.59-6,5.42-9L794.94,576Zm6.08,74.7,23.93-14.94c-2-3.24-3.71-6-5.54-9l-24,15Zm95.59-24.39c-1.91,3.1-3.6,5.85-5.52,9l24,14.74,5.44-9Zm-5-228.79,24,15,5.44-9L891.6,397.78ZM819.18,472l-23.95-14.71c-1.91,3-3.63,5.72-5.53,8.72l24,14.95Zm-5.51,45-24,15,5.54,8.7,24-14.74C817.22,522.77,815.58,520.1,813.67,517Zm96.38,59.51-24,15,5.5,8.72,24-14.7Zm-289-95.62c1.88-2.86,3.69-5.61,5.67-8.64l-24-15c-1.9,3.15-3.56,5.91-5.42,9Zm462.71.83,24-15-5.51-8.71-23.88,14.65ZM795.44,338.26l-5.41,9,23.83,14.66c1.87-2.89,3.62-5.6,5.6-8.68ZM1102.27,540c1.91-3.09,3.59-5.81,5.43-8.77l-23.92-14.89c-1.9,3.18-3.56,5.94-5.39,9ZM621.2,517l-23.94,14.72,5.54,8.94,23.92-15C624.74,522.6,623.15,520.1,621.2,517Zm96.11-59.51c-8.24,5.16-15.94,10-24,15l5.6,8.66,23.86-14.73C720.87,463.34,719.23,460.67,717.31,457.52Zm270.16-35.31,24-15-5.67-8.63-23.85,14.66ZM693.39,525.53l24,15c2-3.35,3.58-6.13,5.31-9.11l-23.84-14.62Zm288.52,59.22,24,14.72c2-3.18,3.65-5.79,5.51-8.72l-24-15Zm-258.79.47-5.6-8.67-24,14.72,5.58,8.94ZM693.57,406.75l24,14.74,5.41-8.77-23.9-14.94Z" transform="translate(-477.81 -268.45)"/></svg>